<?xml version="1.0" encoding="UTF-8" standalone="no"?>
<!-- Created with Inkscape (http://www.inkscape.org/) -->

<svg
   width="210mm"
   height="297mm"
   viewBox="0 0 210 297"
   version="1.1"
   id="svg17328"
   inkscape:version="1.2.2 (732a01da63, 2022-12-09)"
   sodipodi:docname="çizim.svg"
   xmlns:inkscape="http://www.inkscape.org/namespaces/inkscape"
   xmlns:sodipodi="http://sodipodi.sourceforge.net/DTD/sodipodi-0.dtd"
   xmlns="http://www.w3.org/2000/svg"
   xmlns:svg="http://www.w3.org/2000/svg">
  <sodipodi:namedview
     id="namedview17330"
     pagecolor="#ffffff"
     bordercolor="#000000"
     borderopacity="0.25"
     inkscape:showpageshadow="2"
     inkscape:pageopacity="0.0"
     inkscape:pagecheckerboard="0"
     inkscape:deskcolor="#d1d1d1"
     inkscape:document-units="mm"
     showgrid="false"
     inkscape:zoom="1.104894"
     inkscape:cx="233.50656"
     inkscape:cy="563.85498"
     inkscape:window-width="1920"
     inkscape:window-height="1057"
     inkscape:window-x="-8"
     inkscape:window-y="-8"
     inkscape:window-maximized="1"
     inkscape:current-layer="layer1" />
  <defs
     id="defs17325">
    <inkscape:path-effect
       effect="simplify"
       id="path-effect90489"
       is_visible="true"
       lpeversion="1"
       steps="1"
       threshold="0.00172414"
       smooth_angles="360"
       helper_size="0"
       simplify_individual_paths="false"
       simplify_just_coalesce="false" />
    <inkscape:path-effect
       effect="simplify"
       id="path-effect90485"
       is_visible="true"
       lpeversion="1"
       steps="1"
       threshold="0.00172414"
       smooth_angles="360"
       helper_size="0"
       simplify_individual_paths="false"
       simplify_just_coalesce="false" />
    <inkscape:path-effect
       effect="simplify"
       id="path-effect90481"
       is_visible="true"
       lpeversion="1"
       steps="1"
       threshold="0.00172414"
       smooth_angles="360"
       helper_size="0"
       simplify_individual_paths="false"
       simplify_just_coalesce="false" />
    <inkscape:path-effect
       effect="simplify"
       id="path-effect85345"
       is_visible="true"
       lpeversion="1"
       steps="1"
       threshold="0.00172414"
       smooth_angles="360"
       helper_size="0"
       simplify_individual_paths="false"
       simplify_just_coalesce="false" />
    <inkscape:path-effect
       effect="simplify"
       id="path-effect85341"
       is_visible="true"
       lpeversion="1"
       steps="1"
       threshold="0.00172414"
       smooth_angles="360"
       helper_size="0"
       simplify_individual_paths="false"
       simplify_just_coalesce="false" />
    <inkscape:path-effect
       effect="simplify"
       id="path-effect78772"
       is_visible="true"
       lpeversion="1"
       steps="1"
       threshold="0.00172414"
       smooth_angles="360"
       helper_size="0"
       simplify_individual_paths="false"
       simplify_just_coalesce="false" />
    <inkscape:path-effect
       effect="simplify"
       id="path-effect78038"
       is_visible="true"
       lpeversion="1"
       steps="1"
       threshold="0.00172414"
       smooth_angles="360"
       helper_size="0"
       simplify_individual_paths="false"
       simplify_just_coalesce="false" />
    <inkscape:path-effect
       effect="simplify"
       id="path-effect77308"
       is_visible="true"
       lpeversion="1"
       steps="1"
       threshold="0.00172414"
       smooth_angles="360"
       helper_size="0"
       simplify_individual_paths="false"
       simplify_just_coalesce="false" />
    <inkscape:path-effect
       effect="simplify"
       id="path-effect76578"
       is_visible="true"
       lpeversion="1"
       steps="1"
       threshold="0.00172414"
       smooth_angles="360"
       helper_size="0"
       simplify_individual_paths="false"
       simplify_just_coalesce="false" />
    <inkscape:path-effect
       effect="simplify"
       id="path-effect75848"
       is_visible="true"
       lpeversion="1"
       steps="1"
       threshold="0.00172414"
       smooth_angles="360"
       helper_size="0"
       simplify_individual_paths="false"
       simplify_just_coalesce="false" />
    <inkscape:path-effect
       effect="simplify"
       id="path-effect74392"
       is_visible="true"
       lpeversion="1"
       steps="1"
       threshold="0.00172414"
       smooth_angles="360"
       helper_size="0"
       simplify_individual_paths="false"
       simplify_just_coalesce="false" />
  </defs>
  <g
     inkscape:label="Katman 1"
     inkscape:groupmode="layer"
     id="layer1">
    <path
       id="path22651"
       style="fill:#ffffff;fill-rule:evenodd;stroke:#000000;stroke-width:0.9;stroke-dasharray:none;stroke-opacity:1;paint-order:markers fill stroke"
       d="m 113.32745,92.933346 c -5.78386,0.02013 -12.58584,0.408887 -20.017383,1.082621 -28.825409,2.613283 -13.04133,6.682783 -10.366809,17.785993 l 32.985582,2.97088 1.55872,0.37127 c 0.8673,0.61339 1.9451,-0.67626 2.9671,-0.29117 -7.02261,0.13389 -27.353551,-1.81796 -32.702301,-2.6625 -6.434416,-1.01594 0.636387,2.61356 1.991,18.53026 1.354614,15.91674 -5.079662,6.4344 19.980691,7.11171 24.81579,0.6707 0.15906,0.009 12.82868,-22.36452 1.49619,0.30911 3.04343,0.36575 4.55941,0.16691 1.66513,6.30961 7.18733,17.30313 13.57128,19.32086 l -3.13384,7.67588 c -3.65381,8.98482 -2.33251,19.09215 -2.33251,19.09215 l 5.64124,1.91669 c 2.83698,-0.54581 3.68584,-0.62914 4.39205,-1.69889 0.16421,-0.24874 0.54722,-0.38093 0.68729,-0.77849 0.18037,-0.51194 0.43602,-0.67483 0.85053,-1.14066 0.21333,-0.23974 0.48751,-0.42108 0.76352,-1.05081 l 3.90354,-8.90599 1.4145,-6.75232 c -0.0169,-0.44794 0.10793,-0.99234 0.42685,-1.61231 0.25643,-0.4985 0.5416,-0.98178 0.83664,-1.45882 0.16265,-0.40565 0.41914,-1.15071 0.55751,-1.27963 0.0408,-0.038 0.0154,-0.0385 0.023,-0.0577 0,0 0.22925,0.08 0.23645,-0.0614 0.004,-0.0776 0.009,-0.16444 -0.28644,-0.50221 l 0.31006,0.2387 c 0.021,-0.0383 0.0814,-0.0943 0.10562,-0.1227 0.0583,-0.22522 0.10205,-0.45628 0.14418,-0.68936 0.10599,-0.58633 0.16185,-1.0694 0.40451,-1.41489 0.18639,-0.80769 0.2165,-1.51398 0.0939,-2.1941 0.0169,-0.0413 0.0962,-0.0564 0.0468,-0.11133 -0.11671,-0.12982 0.0962,-0.2644 0.0227,-0.57282 -0.18978,-0.70333 -0.27861,-1.37414 -0.47193,-2.03185 -0.38288,-1.30263 -0.75806,-2.49201 -1.82463,-3.34781 -0.3096,-0.24439 -0.63117,-0.46477 -0.96221,-0.65939 -2.0811,-3.47134 -3.08492,-7.2571 -5.28347,-10.21476 -3.09206,-4.15967 -6.25061,-7.65711 -9.10577,-10.19835 0.41737,-1.63532 -0.38939,-3.03776 -0.86146,-4.66729 l -0.22524,-0.63598 c -0.81314,-2.292005 -2.47875,-4.281678 -4.72787,-5.647719 -1.54137,-1.794773 -5.90647,-2.520723 -11.78235,-2.929413 -2.17189,-0.151062 -4.59017,-0.217924 -7.2192,-0.208772 z"
       sodipodi:nodetypes="ssccccsssccccccssssccscscscccsccscsccsccccsss" />
    <path
       style="fill:#ffffff;fill-rule:evenodd;stroke:#000000;stroke-width:0.899999;stroke-dasharray:none;stroke-opacity:1;paint-order:markers fill stroke"
       d="M 122.59293,115.14253 86.63745,112.16977"
       id="path30643"
       sodipodi:nodetypes="cc" />
    <path
       id="path34439"
       style="fill:#ffffff;fill-rule:evenodd;stroke:#000000;stroke-width:0.759133;stroke-dasharray:none;stroke-opacity:1;paint-order:markers fill stroke"
       d="m 77.64539,95.862882 c -5.426872,0.137957 -9.849249,4.478878 -10.184391,9.996808 l -0.0186,0.53485 c -0.01677,1.67918 0.144651,3.21164 0.877163,4.71611 -1.658065,2.79505 -4.15043,6.18595 -5.669116,10.37398 -1.299271,3.58296 -1.658921,7.81746 -2.700399,12.00347 -0.199566,0.12846 -0.245722,0.18139 -0.434232,0.32772 -1.251431,0.99506 -1.721503,2.10268 -2.234154,3.65947 -0.08788,0.26685 -0.07428,0.71126 -0.176096,0.99455 -0.0046,0.86328 0.0213,1.6217 0.302714,2.44178 0.353316,0.87154 0.747371,1.99047 1.184014,2.82173 0.144306,0.23369 0.290601,0.46637 0.4377,0.69866 l 0.0993,0.0508 c -0.367693,0.43301 0.492844,-0.30636 0.148439,0.10769 -0.125075,0.15037 0.24525,0.19141 0.24525,0.19141 20.461818,29.56885 12.917474,24.37807 19.676936,23.72429 l 4.185653,-1.62297 c 0,0 -3.566528,-21.74863 -9.633668,-29.80663 5.739506,-5.62927 7.266916,-13.42802 7.197516,-19.60396 5.28734,-0.43397 7.218449,-5.16654 7.416247,-10.5649 0.209765,-5.83025 -4.222291,-10.748748 -9.944096,-11.035506 -0.258525,-0.01287 -0.517429,-0.01598 -0.77618,-0.0093 z"
       sodipodi:nodetypes="scccsccscccccscccccccss" />
    <path
       id="path41187"
       style="fill:#ffffff;fill-rule:evenodd;stroke:#000000;stroke-width:1.00988;stroke-dasharray:none;stroke-opacity:1;paint-order:markers fill stroke"
       d="M 115.43636 135.17935 C 114.71628 135.18623 113.99392 135.24549 113.27422 135.29768 C 111.69422 135.31597 110.12071 135.82568 108.54583 136.21649 C 107.11145 136.55923 105.67445 136.78014 104.23808 136.98699 C 102.93667 137.25912 101.64255 137.10262 100.34581 137.08052 C 99.015703 136.92395 97.68752 136.7486 96.351742 136.7193 C 95.278365 136.73341 94.204189 136.81928 93.129716 136.92446 C 92.732485 136.96526 92.344342 136.88132 91.957694 136.74979 L 88.908785 141.56914 C 89.236577 141.73059 89.564399 141.82772 89.900972 141.86679 C 89.882556 142.0397 89.944897 142.03939 89.944897 142.03939 C 85.008456 166.58712 88.036487 168.80985 88.036487 168.80985 C 88.036487 168.80985 132.77592 174.12651 129.13114 163.77863 C 125.7306 154.12421 125.83947 140.46868 121.15229 138.93932 L 122.10676 137.44381 C 120.78221 136.95977 119.5129 136.06601 118.19485 135.5385 C 117.28454 135.24825 116.3622 135.1705 115.43636 135.17935 z " />
    <path
       style="fill:#ffffff;fill-rule:evenodd;stroke:#000000;stroke-width:0.846418;stroke-dasharray:none;stroke-opacity:1;paint-order:markers fill stroke"
       d="m 117.89747,104.61145 c -0.6731,-2.2703 -0.10455,-5.678937 1.44838,-7.28719 4.99154,-5.169362 9.93819,-2.871244 9.93819,-2.871244"
       id="path42701"
       sodipodi:nodetypes="csc" />
    <path
       style="fill:#ffffff;fill-rule:evenodd;stroke:#000000;stroke-width:0.694638;stroke-dasharray:none;stroke-opacity:1;paint-order:markers fill stroke"
       d="M 141.90078,126.13145 C 135.77997,112.85103 130.93,113.37027 130.93,113.37027"
       id="path42701-1" />
    <path
       style="fill:#ffffff;fill-rule:evenodd;stroke:#000000;stroke-width:0.591228;stroke-dasharray:none;stroke-opacity:1;paint-order:markers fill stroke"
       d="m 67.543045,130.80494 c 4.09029,-14.39658 7.331328,-13.8337 7.331328,-13.8337"
       id="path42701-1-8" />
    <path
       style="fill:#ffffff;fill-rule:evenodd;stroke:#000000;stroke-width:0.739;stroke-dasharray:none;stroke-opacity:1;paint-order:markers fill stroke"
       d="m 89.55987,149.18663 c 35.91973,-2.39465 35.68027,-3.83144 35.68027,-3.83144"
       id="path48743" />
    <path
       style="fill:#ffffff;fill-rule:evenodd;stroke:#000000;stroke-width:0.739;stroke-dasharray:none;stroke-opacity:1;paint-order:markers fill stroke"
       d="m 87.883615,158.04683 c 38.793315,-1.91572 38.793315,-4.31037 38.793315,-4.31037"
       id="path48745" />
    <path
       id="path54613-0"
       style="fill:#808080;fill-rule:evenodd;stroke:#000000;stroke-width:0.97;stroke-dasharray:none;stroke-opacity:1;paint-order:markers fill stroke"
       d="m 128.03748,166.8564 c 3.91836,23.9133 1.47721,25.45523 1.47721,25.45523 0,0 5.51986,25.73945 1.6015,25.73945 -3.91834,0 -7.56862,2.10826 -11.07404,-0.38158 -5.39564,-3.83243 -2.47635,-21.7662 -5.35514,-25.07363 -3.37031,-3.87214 -3.04134,-12.4171 -3.04134,-12.4171 M 88.601331,167.82075 c -4.220483,22.83469 -0.301465,24.76439 -0.301465,24.76439 0,0 -7.23511,24.12115 -3.01463,24.12115 4.220483,0 8.616242,2.16324 11.154132,0.32162 4.318892,-3.134 2.330339,-21.86985 5.178342,-24.84654 3.34631,-3.49751 3.86555,-12.78247 3.86555,-12.78247 m 0.72766,-32.24062 c 2.24123,33.04236 -3.02784,32.06641 -3.02784,32.06641 m 8.38411,-30.62217 c 2.5538,32.91601 -4.77861,32.03392 -4.77861,32.03392 m -4.62422,-44.52502 c -1.30246,42.08803 1.65585,44.60802 3.32689,44.29707 1.67104,-0.31095 10.15313,1.82794 8.34026,-5.07726 -1.81288,-6.90516 4.36767,-41.93532 -11.66715,-39.21981 z"
       sodipodi:nodetypes="ccssscccsssccccccssc" />
    <path
       style="fill:#ffffff;fill-rule:evenodd;stroke:#000000;stroke-width:0.651824;stroke-dasharray:none;stroke-opacity:1;paint-order:markers fill stroke"
       d="m 97.900734,191.87785 c 0.864094,7.35971 -2.799357,4.34666 -2.799357,4.34666"
       id="path55369" />
    <path
       style="fill:#ffffff;fill-rule:evenodd;stroke:#000000;stroke-width:0.739;stroke-dasharray:none;stroke-opacity:1;paint-order:markers fill stroke"
       d="m 84.531106,215.75787 c -0.957859,10.89565 -2.634112,12.45217 -2.634112,12.45217 l 9.33913,2.39465 c 0,0 2.514382,-10.41672 5.747157,-13.41003"
       id="path62010"
       sodipodi:nodetypes="cccc" />
    <path
       style="fill:#ffffff;fill-rule:evenodd;stroke:#000000;stroke-width:0.739;stroke-dasharray:none;stroke-opacity:1;paint-order:markers fill stroke"
       d="m 119.85219,217.6736 c 2.51437,11.01538 1.85585,14.48762 1.85585,14.48762 l 13.52977,-3.35251 c 0,0 -4.25051,-8.97992 -2.69399,-12.5719"
       id="path62012"
       sodipodi:nodetypes="cccc" />
    <path
       style="fill:#ffffff;fill-rule:evenodd;stroke:#000000;stroke-width:0.713881;stroke-dasharray:none;stroke-opacity:1;paint-order:markers fill stroke"
       d="m 81.927732,228.22688 c -0.999256,6.3533 -3.62381,9.22449 -3.62381,9.22449 0,0 12.080795,5.14051 11.663351,2.23645 -0.453977,-3.15821 1.754154,-7.5651 1.503266,-8.65933"
       id="path66372"
       sodipodi:nodetypes="ccsc" />
    <path
       style="fill:#ffffff;fill-rule:evenodd;stroke:#000000;stroke-width:0.793761;stroke-dasharray:none;stroke-opacity:1;paint-order:markers fill stroke"
       d="m 121.79599,232.19176 c 2.64689,7.47167 4.20069,9.69582 4.20069,9.69582 0,0 8.02294,2.75271 8.97336,-0.48552 0.95042,-3.2382 1.11733,-11.25496 0.40207,-12.2982"
       id="path66372-5"
       sodipodi:nodetypes="ccsc" />
    <path
       style="fill:#552200;fill-rule:evenodd;stroke:#000000;stroke-width:0.739;stroke-dasharray:none;stroke-opacity:1;paint-order:markers fill stroke"
       d="m 78.389684,237.92892 c -3.352509,6.46555 -4.070903,6.46555 -4.070903,6.46555 0,0 12.212709,2.63411 13.410033,4.0709 1.197324,1.43679 1.379932,-7.66589 1.379932,-7.66589"
       id="path72936"
       sodipodi:nodetypes="ccsc" />
    <path
       id="path78770"
       style="fill:#ffffff;fill-rule:evenodd;stroke:#000000;stroke-width:0.739;stroke-dasharray:none;stroke-opacity:1;paint-order:markers fill stroke"
       inkscape:path-effect="#path-effect78772"
       inkscape:original-d="m 72.59906,247.97976 c -0.0021,0.0986 -0.171255,0.0885 -0.211662,0.16933 -0.05346,0.10693 -0.126994,0.50327 -0.126994,0.63497 0,0.0775 0.02661,0.25883 0,0.33866 -0.03996,0.11988 -0.108548,0.20953 -0.126995,0.33865 -0.008,0.0559 0.01225,0.11423 0,0.16933 -0.01572,0.0707 -0.12088,0.34257 -0.169328,0.42332 -0.08657,0.14428 -0.144838,0.14275 -0.169328,0.33865 -0.03392,0.27138 0,0.57358 0,0.84664 0,0.15502 -0.03817,0.39762 0,0.55031 0.0141,0.0423 0.02822,0.0847 0.04233,0.127 0.02822,0.0282 0.07065,0.0473 0.08466,0.0847 0.03014,0.0804 0.01519,0.17257 0.04233,0.25399 0.04318,0.12954 0.161732,0.24785 0.211659,0.38099 0.06053,0.16141 0.113469,0.40303 0.211658,0.55031 0.05941,0.0891 0.270005,0.31646 0.380987,0.33866 0.05535,0.0111 0.115057,-0.0155 0.169328,0 0.04892,0.014 0.08023,0.0646 0.126995,0.0847 0.211357,0.0906 0.362331,0.0505 0.550315,0.21166 0.255404,0.21892 0.524396,0.39671 0.804304,0.59264 0.179154,0.12541 -0.0158,0.11213 0.296323,0.25399 0.07814,0.0355 0.171778,0.0177 0.253989,0.0423 0.302257,0.0907 0.587822,0.2806 0.888968,0.38098 0.455724,0.15191 0.932757,0.1892 1.39695,0.29633 0.35329,0.0815 0.702948,0.17784 1.058296,0.25399 0.140706,0.0301 0.286803,0.0392 0.423318,0.0847 0.307903,0.10263 0.02572,0.0805 0.380986,0.16933 0.335677,0.0839 0.675236,0.0844 1.015963,0.12699 0.413393,0.0517 0.820108,-0.0533 1.227625,-0.0847 0.45135,-0.0347 0.899998,-0.0423 1.354616,-0.0423 0.277336,0 -0.02461,0.0134 0.253992,-0.0423 0.228775,-0.0457 0.49951,0.0677 0.71964,-0.0423 0.0357,-0.0179 0.05044,-0.0641 0.08466,-0.0847 0.103381,-0.062 0.221692,-0.0978 0.338654,-0.12699 0.08214,-0.0205 0.17018,0.012 0.253992,0 0.133911,-0.0191 0.653415,-0.18163 0.761973,-0.254 0.06641,-0.0443 0.105469,-0.12143 0.169326,-0.16933 0.208523,-0.15638 -0.07643,0.1611 0.253992,-0.16932 0.05867,-0.0587 0.08441,-0.1692 0.169325,-0.21166 0.03281,-0.0164 0.09756,-0.0227 0.126998,-0.0423 0.04981,-0.0332 0.0702,-0.10807 0.126994,-0.127 0.09989,-0.0333 0.186717,-0.0299 0.296323,-0.0847 0.154165,-0.0771 0.04963,-0.0642 0.08466,-0.16933 0.01961,-0.0588 0.501452,-0.51774 0.550312,-0.55031 0.04233,-0.0282 0.08023,-0.0646 0.126998,-0.0847 0.05347,-0.0229 0.124631,-0.005 0.169325,-0.0423 0.04848,-0.0404 0.04004,-0.1247 0.08466,-0.16932 0.03155,-0.0316 0.09544,-0.0108 0.126995,-0.0423 0.03155,-0.0316 0.02238,-0.0871 0.04233,-0.12699 0.08241,-0.16483 0,-0.28901 0,-0.46565 0,-0.40921 0,-0.81842 0,-1.22762 0,-0.0141 0.0024,0.0284 0,0.0423 -0.037,0.22198 0.006,0.16334 -0.08466,0.25399 m -5.376121,0.0422 c 0.025,0.13692 -0.09283,0.3565 -0.04233,0.50798 0.03277,0.0983 0.10953,0.1492 0.126995,0.25399 0.0093,0.0557 -0.01106,0.11398 0,0.16933 0.0078,0.0391 0.07204,0.0468 0.08466,0.0847 0.01339,0.0402 -0.01894,0.0891 0,0.127 0.0118,0.0236 0.115541,0.15787 0.126995,0.16933 0.04633,0.0463 0.201353,0.0292 0.253992,0.0423 0.08765,0.0219 0.13648,0.11921 0.211658,0.16933 0.115081,0.0767 0.217538,0.0544 0.338654,0.0847 0.07415,0.0186 0.01651,0.0929 0.08466,0.12699 0.02524,0.0126 0.05789,-0.009 0.08466,0 0.138184,0.0461 0.03548,0.0553 0.211659,0.0847 0.05876,0.01 0.149502,-0.0155 0.211658,0 0.210135,0.0525 0.06674,0.0493 0.338654,0.12699 0.08078,0.0231 0.371509,0.0314 0.46565,0 0.01895,-0.006 0.02339,-0.036 0.04233,-0.0423 0.104605,-0.0349 0.229232,-0.0409 0.338653,-0.0847 0.01852,-0.007 0.02339,-0.036 0.04233,-0.0423 0.03799,-0.0268 0.08684,0.0134 0.126997,0 0.17993,-0.06 0.373727,-0.0987 0.550312,-0.16933 0.05558,-0.0222 0.0791,-0.0911 0.126995,-0.127 0.02133,-0.0933 0.08709,-0.0224 0.126998,-0.0423 0.07359,-0.0368 0.153479,-0.0688 0.211658,-0.12699 0.01,-0.01 -0.01262,-0.036 0,-0.0423 0.02524,-0.0126 0.05942,0.0126 0.08466,0 0.02524,-0.0126 -0.01995,-0.0647 0,-0.0847 0.04989,-0.0499 0.112885,-0.0847 0.169326,-0.12699 0.02524,-0.019 0.05473,-0.0324 0.08466,-0.0423 0.01339,-0.004 0.03787,0.0134 0.04233,0 0.01339,-0.0402 -0.0254,-0.0931 0,-0.12699 0.09255,-0.12341 0.145018,-0.018 0.211659,-0.0847 0.01995,-0.0199 -0.01566,-0.0612 0,-0.0847 0.01749,-0.0263 0.06235,-0.02 0.08466,-0.0423 0.03597,-0.036 0.04869,-0.091 0.08466,-0.127 0.01,-0.01 0.03602,0.0126 0.04233,0 0.01262,-0.0252 -0.01566,-0.0612 0,-0.0847 0.01752,-0.0263 0.06573,-0.0171 0.08466,-0.0423 0.01632,-0.0218 0.239136,-0.73003 0.25399,-0.80431 0.0055,-0.0277 -0.01566,-0.0612 0,-0.0847 0.01749,-0.0263 0.06573,-0.0171 0.08466,-0.0423 0.115615,-0.15415 0.03345,-0.35207 0.126995,-0.50798 0.02053,-0.0342 0.06253,-0.0515 0.08466,-0.0847 0.04696,-0.0704 -0.01199,-0.17018 0,-0.25399 -0.03144,-0.0783 0.07232,-0.0776 0.08466,-0.12699 0.01027,-0.0411 -0.01894,-0.0891 0,-0.127 0.0141,-0.0282 0.07055,-0.0141 0.08466,-0.0423 0.01894,-0.0379 -0.01027,-0.0859 0,-0.127 0.0048,-0.0194 0.03842,-0.0228 0.04233,-0.0423 0.04554,-0.22766 -0.0258,-0.11773 0.04233,-0.25399 0.04123,-0.0825 -0.01328,-0.24573 0,-0.33865 0.03391,-0.23737 0.07142,-0.73549 0.169328,-0.9313 m -9.566933,2.96308 c 0.148465,0.0613 -0.03194,0.30672 0.04233,0.38099 0.02231,0.0223 0.05841,0.0248 0.08466,0.0423 0.07981,0.0532 0.16982,0.21265 0.211659,0.29632 0.06516,0.13032 0.07882,0.45069 0.211659,0.55032 0.0712,0.0534 0.140462,0.0313 0.211658,0.0847 0.128159,-0.10446 0.07281,0.11515 0.08466,0.127 0.01995,0.0199 0.05789,-0.009 0.08466,0 0.310351,0.10345 0.639305,0.18271 0.973633,0.12699 0.07097,-0.0118 0.147304,-0.0102 0.211658,-0.0423 0.01786,-0.009 0.02276,-0.0384 0.04233,-0.0423 0.05535,-0.0111 0.118843,0.0252 0.169328,0 0.04551,-0.0228 0.04869,-0.091 0.08466,-0.127 0.11434,-0.11434 0.168603,-0.0978 0.25399,-0.21165 0.01894,-0.0252 0.02822,-0.0564 0.04233,-0.0847 0.02822,-0.0423 0.05288,-0.0873 0.08466,-0.127 0.05618,-0.0702 0.171429,-0.13119 0.211659,-0.21165 0.0063,-0.0126 -0.01,-0.0324 0,-0.0423 0.0108,-0.0108 0.230441,-0.14577 0.253989,-0.16932 0.0277,-0.0277 0.130384,-0.24765 0.169328,-0.29633 0.07043,-0.088 0.204274,-0.15455 0.25399,-0.25399 0.04742,-0.0948 0.07839,-0.24144 0.126997,-0.33865 0.0063,-0.0126 0.03602,0.0126 0.04233,0 0.03398,-0.068 0.05068,-0.14369 0.08466,-0.21166 0.01955,-0.0391 -0.02961,-0.13971 0,-0.16933 0.01995,-0.02 0.07014,0.0242 0.08466,0 0.01807,-0.0301 0.08466,-0.5527 0.08466,-0.63497 0,-0.20114 -0.02838,-0.43636 0,-0.63498 0.0013,-0.01 0.04233,-0.31613 0.04233,-0.21166 m -6.519057,0.93122 c 0.06191,0.27307 -0.112443,0.69914 0.04233,0.9313 0.09762,0.14642 0.265682,0.1416 0.423318,0.21166 0.139975,0.0622 0.263287,0.21398 0.42332,0.25399 0.02738,0.007 0.05789,-0.009 0.08466,0 0.01894,0.006 0.02297,0.0375 0.04233,0.0423 0.06845,0.0171 0.144728,-0.0223 0.211659,0 0.01894,0.006 0.02339,0.036 0.04233,0.0423 0.10982,0.0366 0.300522,-0.0243 0.380987,-0.0847 0.06969,-0.0523 0.06117,-0.22583 0.08466,-0.29632 0.0063,-0.019 0.03602,-0.0234 0.04233,-0.0423 0.0089,-0.0268 -0.01566,-0.0612 0,-0.0847 0.0762,-0.1143 0.210262,-0.18874 0.296323,-0.29632 0.04407,-0.0551 0.0719,-0.12525 0.126997,-0.16933 0.02204,-0.0176 0.06471,0.0199 0.08466,0 0.0631,-0.0631 0.02891,-0.1843 0.08466,-0.25399 0.07643,-0.0955 0.249983,-0.18548 0.338656,-0.29632 0.06356,-0.0795 0.09738,-0.18204 0.169328,-0.25399 0.01,-0.01 0.03602,0.0126 0.04233,0 0.01262,-0.0252 -0.01262,-0.0594 0,-0.0847 0.01191,-0.0238 0.200271,-0.20844 0.211658,-0.25399 0.01027,-0.0411 -0.0083,-0.0855 0,-0.12699 0.01238,-0.0619 0.05981,-0.11133 0.08466,-0.16933 0.115486,-0.26947 0.254638,-0.55483 0.296323,-0.84664 0.03519,-0.2463 0.0039,-0.21688 0.126995,-0.38098 0.01894,-0.0252 0.07389,-0.0847 0.04233,-0.0847 -0.0141,0 0,0.0282 0,0.0423 0,0.11288 0,0.0564 0,0.16932 0,0.0856 -0.03824,0.26219 0,0.33866 0.06567,0.13133 0.08921,-0.11649 0.04233,0.21166 -0.0063,0.0442 -0.03602,0.0828 -0.04233,0.12699 -0.008,0.0559 0.01786,0.11578 0,0.16933 -0.01262,0.0379 -0.06413,0.0504 -0.08466,0.0847 -0.07473,0.12456 -0.0486,0.30573 -0.126997,0.42332 -0.01749,0.0262 -0.06716,0.0161 -0.08466,0.0423 -0.04624,0.0694 -0.09478,0.14723 -0.126997,0.21166 -0.02955,0.0591 -0.105656,0.0527 -0.126995,0.0847 -0.07113,0.1067 -0.102809,0.28122 -0.169328,0.38099 -0.06642,0.0996 -0.184396,0.15656 -0.253989,0.25399 -0.148849,0.0185 -0.01005,0.12092 -0.04233,0.16933 -0.02215,0.0332 -0.06413,0.0504 -0.08466,0.0847 -0.02297,0.0383 -0.01445,0.0921 -0.04233,0.127 -0.06504,0.0813 -0.49262,0.39126 -0.550312,0.42332 -0.05086,0.0282 -0.11729,0.0163 -0.169328,0.0423 -0.01262,0.006 0.01,0.0324 0,0.0423 -0.0086,0.009 -0.193607,0.0545 -0.253992,0.0847 -0.03687,0.0185 -0.326824,0.0182 -0.423318,0.0423 -0.08107,0.0203 -0.329014,0.17896 -0.423317,0.0847 -0.216332,-0.21633 0.177495,0.059 -0.126995,-0.16933 -0.225772,-0.11288 0.04233,0.0423 -0.126997,-0.12699 -0.01,-0.01 -0.0345,0.0117 -0.04233,0 -0.102269,-0.15341 -0.01005,-0.0826 -0.04233,-0.21166 -0.05317,-0.2127 -0.533154,-0.4154 -0.550313,-0.42332 -0.04209,-0.0194 -0.06715,0.28901 -0.04233,0.33865 0.08809,0.17618 -0.0029,-0.0453 0.08466,0.0423 0.01,0.01 -0.01,0.0324 0,0.0423 0.0092,0.009 0.08054,0.0341 0.08466,0.0423 0.05463,0.10926 -0.0073,0.33133 0.08466,0.42332 0.02548,0.0255 0.09054,0.0361 0.126995,0.0847 0.02677,0.0357 0.01077,0.0954 0.04233,0.127 0.01966,0.0197 0.181623,0.0323 0.211659,0.0423 0.07432,0.0248 0.137343,0.10222 0.211659,0.12699 0.04016,0.0134 0.08913,-0.0189 0.126994,0 0.01786,0.009 0.02297,0.0375 0.04233,0.0423 0.106206,0.0266 0.839443,0.007 0.888968,-0.0423 0.01,-0.01 0,-0.0282 0,-0.0423 0.02822,-0.0282 0.0535,-0.0597 0.08466,-0.0847 0.07946,-0.0636 0.182042,-0.0974 0.253992,-0.16933 0.01,-0.01 -0.01,-0.0324 0,-0.0423 0.01577,-0.0157 0.161994,-0.0277 0.169328,-0.0423 0.01262,-0.0252 -0.01262,-0.0594 0,-0.0847 0.0026,-0.005 0.12014,-0.0355 0.126995,-0.0423 0.01,-0.01 -0.01175,-0.0345 0,-0.0423 0.02191,-0.0146 0.150995,-0.0663 0.169328,-0.0847 0.05088,-0.0509 0.01958,-0.1434 0.04233,-0.21166 0.0468,-0.1404 0.196294,-0.2656 0.253992,-0.38099 0.01778,-0.0356 0.01773,-0.14472 0.04233,-0.16933 0.01,-0.01 0.03235,0.01 0.04233,0 0.04864,-0.0486 0.04233,-0.0749 0.04233,-0.12699 0,-0.0141 -0.01339,-0.0379 0,-0.0423 0.04016,-0.0134 0.09177,0.0235 0.126994,0 0.02349,-0.0157 -0.01262,-0.0594 0,-0.0847 0.0063,-0.0126 0.03236,0.01 0.04233,0 0.08758,-0.0876 -0.133845,0.003 0.04233,-0.0847 0.05839,-0.0292 0.03786,0.0513 0.08466,-0.0423 0.02698,-0.054 -0.01468,-0.1529 0,-0.21166 0.0076,-0.0306 0.03468,-0.054 0.04233,-0.0847 0.01027,-0.0411 -0.01894,-0.0891 0,-0.12699 0.0089,-0.0179 0.03749,-0.023 0.04233,-0.0423 0.0054,-0.0216 -0.02416,-0.22984 0,-0.25399 0.09407,-0.0941 0.0047,0.10818 0.04233,-0.0423 0.01082,-0.0433 0.02822,-0.0847 0.04233,-0.127 0,-0.0564 -0.01106,-0.11398 0,-0.16933 0.0078,-0.0391 0.06682,-0.049 0.08466,-0.0847 0.04233,-0.0847 -0.08466,0 0,-0.127 0.01749,-0.0262 0.06716,-0.0161 0.08466,-0.0423 0.01566,-0.0235 -0.0069,-0.0573 0,-0.0847 0.0076,-0.0306 0.03061,-0.0554 0.04233,-0.0847 0.04111,-0.10279 0.05698,-0.254 0.04233,-0.254 -0.02822,0 0.0141,0.0423 0.04233,0.0423 m -3.090165,-1.26967 c 0.02384,0.3256 0.105944,0.86722 0.04233,1.18529 -0.0039,0.0196 -0.03602,0.0234 -0.04233,0.0423 -0.02117,0.0635 0.02117,0.14816 0,0.21166 -0.0063,0.0189 -0.02822,0.0282 -0.04233,0.0423 -0.0141,0.0282 -0.03235,0.0547 -0.04233,0.0847 -0.01958,0.0587 0.01373,0.1567 0,0.21166 -0.0048,0.0194 -0.03842,0.0228 -0.04233,0.0423 -0.01106,0.0553 0.008,0.11345 0,0.16933 -0.01558,0.10918 -0.067,0.14101 -0.08466,0.21166 -0.01368,0.0547 0.02524,0.11884 0,0.16932 -0.03301,0.066 -0.03956,0.14401 -0.08466,0.21166 -0.04873,0.0731 -0.169328,0.15336 -0.169328,0.21166 m -1.566291,-5.46074 c -0.164959,-0.003 -0.261945,0.008 -0.380986,0.12699 -0.01,0.01 0.01,0.0324 0,0.0423 -0.03153,0.0315 -0.145407,0.0608 -0.169326,0.0847 -0.01,0.01 0.0052,0.0292 0,0.0423 -0.02344,0.0586 -0.0468,0.11884 -0.08466,0.16933 -0.0085,0.0113 -0.02971,-0.006 -0.04233,0 -0.07832,0.0392 -0.125495,0.14591 -0.169325,0.21166 -0.03335,0.05 -0.101587,0.0593 -0.126998,0.0847 -0.01,0.01 0.0063,0.0297 0,0.0423 -0.04686,0.0937 -0.09791,0.16673 -0.126994,0.25399 -0.0089,0.0268 0.01566,0.0612 0,0.0847 -0.103119,0.15468 -0.06197,-0.0454 -0.126995,0.0847 -0.02601,0.052 -0.0013,0.12819 -0.04233,0.16933 -0.01,0.01 -0.03235,-0.01 -0.04233,0 -0.05088,0.0509 -0.01016,0.1473 -0.04233,0.21166 -0.0063,0.0126 -0.02822,0 -0.04233,0 -0.0141,0.0282 -0.03235,0.0547 -0.04233,0.0847 -0.06293,0.18879 0.03905,0.43972 0,0.63498 -0.09264,0.4632 -0.04233,0.96545 -0.04233,1.43928 0,0.21077 -0.04093,0.47263 0,0.67731 0.01693,0.0847 0.06773,0.16932 0.08466,0.25399 0.07345,0.36726 -0.111218,-0.16432 0.04233,0.29632 0.01892,0.0567 0.117025,0.28635 0.126995,0.29632 0.04798,0.048 0.134247,0.0568 0.169328,0.127 0.08038,0.16076 -0.297651,-0.21299 0.08466,0.16933 0.01,0.01 0.02971,-0.006 0.04233,0 0.176175,0.0881 -0.04525,-0.003 0.04233,0.0847 0.02231,0.0223 0.06235,0.02 0.08466,0.0423 0.04989,0.0499 0.09544,0.10622 0.126995,0.16933 0.0063,0.0126 -0.01175,0.0345 0,0.0423 0.03713,0.0248 0.09912,0.007 0.126997,0.0423 0.03634,0.0454 0.0013,0.12819 0.04233,0.16933 0.02993,0.0299 0.08593,-0.0103 0.126995,0 0.03872,0.01 0.04553,0.0768 0.08466,0.0847 0.136297,0.0273 0.286173,-0.0229 0.423317,0 0.122431,0.0204 0.678035,0.10547 0.804307,0.0423 0.06929,-0.0346 0.142367,-0.0924 0.211659,-0.127 0.01262,-0.006 0.03235,0.01 0.04233,0 0.0078,-0.008 0.03453,-0.1192 0.04233,-0.127 0.01,-0.01 0.03236,0.01 0.04233,0 0.0016,-0.002 0.161515,-0.24227 0.169329,-0.25399 0.06188,-0.0928 0.0373,-0.28626 0.08466,-0.38098 0.0063,-0.0126 0.03236,0.01 0.04233,0 0.01,-0.01 -0.01,-0.0324 0,-0.0423 0.02231,-0.0223 0.06716,-0.0161 0.08466,-0.0423 0.03168,-0.0475 -0.04038,-0.21361 0,-0.25399 0.04601,-0.046 0.04233,0.029 0.04233,-0.12699"
       d="m 72.59906,247.97976 c -0.06735,0.11814 -0.214466,0.13704 -0.25945,0.3159 -0.05792,0.2303 -0.08502,0.4667 -0.06751,0.70526 0.01482,0.20192 -0.115058,0.35633 -0.135415,0.56673 -0.01748,0.18068 -0.06718,0.37863 -0.188501,0.5118 -0.104547,0.11476 -0.154408,0.25872 -0.163168,0.41632 -0.01958,0.3522 0.05994,0.70896 -0.0061,1.05668 -0.03778,0.19886 0.169279,0.33576 0.158354,0.51103 -0.01202,0.19276 0.126605,0.33525 0.204103,0.49932 0.120092,0.25424 0.162979,0.54456 0.363423,0.76427 0.106549,0.11679 0.263011,0.10115 0.412336,0.19421 0.130491,0.0813 0.274469,0.13617 0.431504,0.16806 0.238511,0.0484 0.399582,0.24063 0.584215,0.38271 0.180426,0.13884 0.473387,0.18739 0.553608,0.40007 0.06153,0.16311 0.263107,0.19086 0.419806,0.22644 0.381095,0.0865 0.704108,0.32768 1.081054,0.43283 0.514471,0.14351 1.047777,0.19612 1.565678,0.32799 0.366233,0.0932 0.730621,0.20446 1.106478,0.24505 0.177037,0.0191 0.286722,0.15076 0.458688,0.19146 0.377373,0.0893 0.765329,0.12367 1.151378,0.13863 0.452137,0.0175 0.895366,-0.0875 1.345867,-0.11313 0.408676,-0.0232 0.873521,0.17917 1.22748,-0.0258 0.109451,-0.0634 0.267157,-0.0553 0.397663,-0.0465 0.157001,0.0106 0.371247,0.0766 0.472925,-0.0557 0.100587,-0.13089 0.276133,-0.22061 0.430896,-0.19919 0.179198,0.0248 0.355499,-0.0115 0.523645,-0.0732 0.170987,-0.0627 0.397591,-0.0639 0.506755,-0.21378 0.05554,-0.0763 0.171036,-0.12389 0.228065,-0.15638 0.17311,-0.0986 0.287134,-0.2173 0.418433,-0.38525 0.102232,-0.13077 0.247981,-0.18074 0.410862,-0.20626 0.184827,-0.029 0.10673,-0.19452 0.231084,-0.31352 0.183581,-0.17567 0.316063,-0.535 0.57099,-0.50883 0.157691,0.0162 0.13922,-0.21469 0.267206,-0.22122 0.198232,-0.0101 0.203824,-0.29232 0.177833,-0.44384 -0.03919,-0.22848 -0.02173,-0.46163 -0.02173,-0.69258 0,-0.23884 0.03782,-0.95238 0,-0.71654 -0.01593,0.0993 0.01124,0.23199 -0.08466,0.29629 m -5.376121,0.0422 c 0.02167,0.20078 -0.178849,0.46355 0.0076,0.60391 0.148019,0.1114 0.197976,0.22825 0.161677,0.41209 -0.03551,0.17982 0.137058,0.32214 0.325609,0.333 0.18229,0.0105 0.255969,0.25545 0.45482,0.2374 0.122582,-0.0111 0.12554,0.14809 0.23553,0.14925 0.164838,0.002 0.299005,0.0511 0.483447,0.0807 0.15959,0.0256 0.291121,0.12769 0.456782,0.14519 0.166401,0.0176 0.314798,-0.0423 0.475102,-0.0735 0.123185,-0.0239 0.227648,-0.12536 0.350486,-0.1194 0.219521,0.0106 0.470838,-0.0287 0.647086,-0.15991 0.102462,-0.0763 0.137575,-0.16369 0.28183,-0.18294 0.111333,-0.0149 0.159533,-0.16604 0.226151,-0.15565 0.09346,0.0146 0.05182,-0.0478 0.124536,-0.15105 0.07323,-0.10395 0.160555,-0.0463 0.207367,-0.21639 0.036,-0.13077 0.04409,-0.147 0.218402,-0.18294 0.106645,-0.022 0.234031,-0.11403 0.214772,-0.18986 -0.0264,-0.10396 0.08879,-0.1084 0.12602,-0.23086 0.07087,-0.2331 0.248685,-0.46164 0.209626,-0.70151 -0.01786,-0.10965 0.154641,-0.11521 0.146386,-0.2601 -0.01082,-0.18984 0.184907,-0.31898 0.167936,-0.49556 -0.0115,-0.11962 0.09571,-0.18113 0.06654,-0.32338 -0.01686,-0.0822 0.08873,-0.0768 0.08466,-0.1693 -0.0059,-0.13427 -0.0077,-0.25925 0.06515,-0.38259 0.08299,-0.14058 0.007,-0.29816 0.02919,-0.45252 0.04122,-0.28693 0.04891,-0.58689 0.159649,-0.85813 m -9.566933,2.96308 c 0.174114,0.0872 -0.07451,0.29648 0.105825,0.41243 0.126824,0.0815 0.206495,0.22591 0.255178,0.36416 0.06062,0.17215 0.03885,0.41857 0.215922,0.51012 0.09255,0.0479 0.254535,-0.0165 0.265023,0.0591 0.01007,0.0726 -0.02488,0.0961 0.08934,0.13585 0.336726,0.11721 0.699358,0.18317 1.054823,0.11688 0.126495,-0.0236 0.277538,0.0462 0.342126,-0.0745 0.0693,-0.12952 0.219779,-0.18416 0.307911,-0.30156 0.08417,-0.11212 0.137447,-0.2462 0.254155,-0.33804 0.11373,-0.0895 0.136668,-0.20177 0.281358,-0.27294 0.177222,-0.0872 0.174921,-0.32997 0.337296,-0.43528 0.122701,-0.0796 0.215697,-0.1999 0.236939,-0.34454 0.02419,-0.1647 0.09774,-0.20773 0.178934,-0.35607 0.04231,-0.0773 0.06734,-0.0401 0.09666,-0.19515 0.04548,-0.24056 0.09613,-0.48636 0.08291,-0.73148 -0.01389,-0.25744 -0.02391,-0.52022 0.04232,-0.77144 0,0 0.0018,0.0213 0.0018,0.0213 m -6.519057,0.93122 c 0.06184,0.30035 -0.12652,0.63107 0.02877,0.90898 0.116962,0.20932 0.4197,0.14308 0.564855,0.31239 0.113201,0.13204 0.279409,0.24192 0.422336,0.21788 0.123767,-0.0208 0.210059,0.0579 0.323033,0.0532 0.148557,-0.006 0.338354,-0.0563 0.371598,-0.23699 0.02522,-0.13707 0.02917,-0.27443 0.13368,-0.36137 0.129382,-0.10763 0.1693,-0.38432 0.337507,-0.36859 0.210045,0.0196 0.124413,-0.24702 0.283341,-0.36038 0.133486,-0.0952 0.274617,-0.19694 0.33521,-0.35408 0.04176,-0.1083 0.04757,-0.1268 0.132598,-0.20809 0.120093,-0.11481 0.13077,-0.2572 0.214567,-0.40952 0.135867,-0.24697 0.225335,-0.51757 0.325947,-0.78107 0.06119,-0.16026 -0.02642,-0.39265 0.112661,-0.49647 0.06642,-0.0496 0.08526,-0.25179 0.09674,-0.0795 0.0097,0.14621 -0.04282,0.29428 -0.01098,0.43712 0.0212,0.0951 0.108279,0.0411 0.06466,0.16677 -0.04567,0.13156 0.04389,0.33127 -0.06935,0.39861 -0.178158,0.10595 -0.03422,0.44213 -0.214138,0.4976 -0.156691,0.0483 -0.227151,0.17523 -0.320506,0.32468 -0.10029,0.16055 -0.15998,0.32809 -0.27774,0.49419 -0.07344,0.10358 -0.06837,0.15485 -0.182925,0.2897 -0.109528,0.12893 -0.16351,0.28371 -0.319464,0.39334 -0.132871,0.0934 -0.24072,0.27237 -0.403416,0.27695 -0.140247,0.004 -0.179203,0.0688 -0.318772,0.12974 -0.190735,0.0832 -0.43039,-0.0133 -0.602381,0.11464 -0.109235,0.0813 -0.510293,-0.084 -0.36317,-0.0514 0.13789,0.0306 -0.102616,-0.0839 -0.139499,-0.13249 -0.06589,-0.0868 -0.09969,-0.11526 -0.139518,-0.26509 -0.05072,-0.19081 -0.259199,-0.27261 -0.409357,-0.37557 -0.083,-0.0569 -0.153789,-0.11021 -0.18834,0.0439 -0.01784,0.0796 0.02158,0.33749 0.04291,0.27937 0.03129,-0.0852 0.09225,-0.004 0.126791,0.0725 0.06773,0.14987 -0.0129,0.34341 0.162171,0.46659 0.09298,0.0654 0.06006,0.18236 0.228487,0.19815 0.15777,0.0148 0.289452,0.0531 0.425065,0.1493 0.12776,0.0906 0.328077,0.0782 0.477617,0.0406 0.130153,-0.0327 0.363227,0.0243 0.442255,-0.0926 0.08413,-0.1245 0.348277,-0.12023 0.341465,-0.26347 -0.0045,-0.0946 0.0096,-0.13293 0.166515,-0.15986 0.135382,-0.0232 0.266922,-0.0266 0.296323,-0.1693 0.03558,-0.17267 0.06936,-0.36254 0.221272,-0.48143 0.113685,-0.089 0.148435,-0.18324 0.186844,-0.31357 0.0234,-0.0794 -0.02341,-0.0849 0.113135,-0.12824 0.07102,-0.0226 0.172976,-0.0762 0.09112,-0.11792 -0.127158,-0.0648 0.14498,-0.0155 0.11657,-0.1494 -0.02941,-0.13859 -0.02555,-0.30357 0.0557,-0.39639 0.06304,-0.072 0.13593,-0.38637 0.06445,-0.29072 -0.03899,0.0522 0.05173,-0.17206 0.0357,-0.2393 -0.0286,-0.12004 -0.0062,-0.16049 0.06624,-0.25752 0.05224,-0.07 0.0326,-0.11188 0.115402,-0.18747 0.06559,-0.0599 0.08465,-0.30943 0.07648,-0.29553 0,0 0.01984,0.0145 0.01984,0.0145 0,0 0.02249,0.007 0.02249,0.007 m -3.090165,-1.26967 c 0.02725,0.39379 0.335499,0.91473 0.04233,1.18529 -0.102591,0.0947 -0.08284,0.19834 -0.118148,0.35903 -0.02461,0.112 -0.09156,0.21145 -0.05471,0.31782 0.05434,0.15689 -0.0745,0.27322 -0.07678,0.4253 -0.0023,0.15016 -0.08964,0.29159 -0.191933,0.40612 -0.02613,0.0293 -0.06237,0.0582 -0.06639,0.10028 m -1.566291,-5.46074 c -0.131046,-0.008 -0.254769,0.0816 -0.378173,0.15991 -0.0977,0.062 -0.145981,0.10322 -0.209061,0.22409 -0.06119,0.11725 -0.112475,0.22615 -0.259393,0.29328 -0.145556,0.0665 -0.245954,0.19175 -0.242107,0.34887 0.0021,0.0846 -0.06806,0.0891 -0.118983,0.16687 -0.05212,0.0796 -0.101921,0.12002 -0.119665,0.22505 -0.01663,0.0984 -0.05274,0.14574 -0.09226,0.23226 -0.108331,0.23715 0.01031,0.49091 -0.03172,0.7434 -0.09696,0.58241 -0.01378,1.17204 -0.04722,1.75879 -0.0094,0.16517 0.0147,0.33052 0.08367,0.4829 0.02425,0.0536 -0.03079,0.0684 -7.43e-4,0.17083 0.04887,0.16667 0.05433,0.37446 0.188058,0.48531 0.04882,0.0405 0.228472,0.21772 0.162704,0.16751 -0.152795,-0.11666 0.06688,0.0973 0.133614,0.12882 0.06855,0.0324 -0.03192,0.0363 0.02259,0.0595 0.126811,0.054 0.154631,0.30722 0.26298,0.29125 0.187298,-0.0276 0.146697,-0.0127 0.264735,0.19952 0.08706,0.1565 0.285231,0.0658 0.429664,0.0785 0.28322,0.025 0.626456,0.23521 0.854123,0.0586 0.11901,-0.0923 0.160757,-0.21908 0.324816,-0.26416 0.114157,-0.0314 0.204363,-0.19846 0.238392,-0.31549 0.03236,-0.11131 0.02064,-0.28066 0.100257,-0.34067 0.05974,-0.045 0.118656,-0.10411 0.07812,-0.21267 -0.04226,-0.11317 0.08747,-0.11931 0.04887,-0.23172" />
    <path
       id="path87564"
       style="fill:#ffffff;fill-rule:evenodd;stroke:#000000;stroke-width:0.956;stroke-dasharray:none;stroke-opacity:1;paint-order:markers fill stroke"
       d="m 124.31052,246.83116 c -5.02271,5.04615 -1.88928,8.51218 -1.70496,8.51218 0.18431,0 15.07992,4.33991 17.55645,4.94422 3.13343,0.76457 7.77163,-1.50499 9.6307,-4.33256 2.21182,-3.3641 -3.04127,-5.40295 -2.11969,-4.02672 m -21.90716,-9.83175 c -4.42369,11.00979 -1.01641,10.54589 -1.01641,10.54589 0,0 12.07293,2.85439 12.8102,3.77186 0.73727,0.91748 12.90237,-2.03886 9.30815,-5.50489 -3.59424,-3.46605 -6.29707,-2.92701 -9.27886,-3.61791 -3.86995,-0.89671 -4.57787,-3.26558 -2.73469,-5.2025"
       sodipodi:nodetypes="cssscccsssc" />
    <path
       style="fill:#ffffff;fill-rule:evenodd;stroke:#000000;stroke-width:0.656;stroke-dasharray:none;stroke-opacity:1;paint-order:markers fill stroke"
       d="m 138.15808,256.49927 c 3.19715,1.11965 5.33777,-0.45008 5.33777,-0.45008 l -1.1445,-1.94556 -1.98144,-0.50971"
       id="path89019"
       sodipodi:nodetypes="cccc" />
    <path
       style="fill:#ffffff;fill-rule:evenodd;stroke:#000000;stroke-width:0.656;stroke-dasharray:none;stroke-opacity:1;paint-order:markers fill stroke"
       d="m 143.45727,255.73471 c 0.4608,0.40775 2.21183,0.10195 2.21183,0.10195 l 0.2304,-2.19178 -2.11967,-1.4272"
       id="path89021"
       sodipodi:nodetypes="cccc" />
    <path
       style="fill:#ffffff;fill-rule:evenodd;stroke:#000000;stroke-width:0.35574071;stroke-dasharray:none;stroke-opacity:1;paint-order:markers fill stroke"
       d="m 146.03775,254.56237 c 0.59904,0.40777 1.75103,0 1.75103,0 l -0.41471,-2.24274 -2.44224,-0.76456"
       id="path89023"
       sodipodi:nodetypes="cccc" />
    <path
       style="fill:#ffffff;fill-rule:evenodd;stroke:#000000;stroke-width:0.556;stroke-dasharray:none;stroke-opacity:1;paint-order:markers fill stroke"
       d="m 147.7341,253.47468 1.43708,-0.0337 0.0922,-2.03886 -2.85696,-1.37621 -1.01375,0.051"
       id="path89025"
       sodipodi:nodetypes="ccccc" />
    <path
       style="fill:#ffffff;fill-rule:evenodd;stroke:#000000;stroke-width:0.43943713;stroke-dasharray:none;stroke-opacity:1;paint-order:markers fill stroke"
       d="m 146.67973,252.08594 c 0.0425,0.0118 0.0934,0.0288 0.10963,0.0734 0.0159,0.0436 -0.006,0.089 -0.023,0.12862 -0.0206,0.0468 -0.0521,0.0926 -0.0521,0.14527 2e-5,0.0459 0.0408,0.0781 0.0798,0.0942 0.0795,0.0329 0.17049,0.0248 0.2489,0.059 0.0298,0.013 0.10128,0.0167 0.0863,0.0456 -0.007,0.0135 -0.0589,-0.006 -0.0461,0.0214 0.0187,0.0405 0.0682,0.0408 0.10523,0.0528 0.0201,0.006 0.0409,0.009 0.0477,0.0362 0.0125,0.0491 0.008,0.10528 0.0361,0.14785 0.0313,0.0483 0.0918,0.0597 0.13637,0.091 0.0227,0.016 0.0621,0.0571 0.0383,0.0766 -0.009,0.007 -0.0492,-0.007 -0.032,0.0115 0.0289,0.0317 0.0515,0.0823 0.095,0.0893 0.0315,0.005 0.0762,0.0232 0.0623,0.0634 -0.009,0.0275 -0.005,0.0549 0.023,0.0752 0.0402,0.0296 0.0216,0.086 0.009,0.12417 -0.012,0.0354 0.0104,0.0668 0.0493,0.0614"
       id="path90479"
       inkscape:original-d="m 146.67973,252.08594 c 0.26297,0.0703 -0.014,0.26841 0.0423,0.38099 0.0498,0.0996 0.25116,0.0833 0.33866,0.12699 0.17617,0.0881 -0.0453,-0.003 0.0423,0.0847 0.008,0.008 0.11919,0.0345 0.127,0.0423 0.004,0.004 0.0371,0.16144 0.0423,0.16933 0.0452,0.0678 0.13887,0.0661 0.16932,0.12699 0.0521,0.10426 -0.12287,-0.0382 0.0423,0.127 0.0223,0.0223 0.0672,0.0161 0.0847,0.0423 0.0157,0.0235 -0.009,0.0579 0,0.0847 0.006,0.0189 0.0334,0.0245 0.0423,0.0423 0.031,0.0621 -0.0638,0.16932 0.0423,0.16932"
       inkscape:path-effect="#path-effect90481" />
    <path
       style="fill:#ffffff;fill-rule:evenodd;stroke:#000000;stroke-width:0.43943713;stroke-dasharray:none;stroke-opacity:1;paint-order:markers fill stroke"
       d="m 145.32511,253.27123 c 0.0227,0.0399 0.0672,0.0638 0.11413,0.0611 0.0582,-0.003 0.11404,-0.0322 0.17324,-0.0214 0.0375,0.007 0.059,0.0432 0.0669,0.0777 0.0202,0.0875 0.004,0.17804 0.0154,0.26643 0.006,0.0476 0.0387,0.0888 0.0799,0.11233 0.0432,0.0247 0.0465,0.0801 0.0476,0.12463 0.001,0.0538 -0.0127,0.10963 0.003,0.16152 0.0135,0.0437 0.0396,0.0822 0.061,0.12242 0.025,0.0471 0.0317,0.1008 0.0312,0.15347"
       id="path90483"
       inkscape:original-d="m 145.32511,253.27123 c 0.0814,0.12831 0.20167,0.0108 0.29632,0.0423 0.11227,0.0374 0.042,0.29557 0.0847,0.38098 0.0309,0.0617 0.0677,0.0677 0.0847,0.0847 0.0613,0.0613 0.008,0.22688 0.0423,0.29632 0.0533,0.1067 0.0847,0.12806 0.0847,0.25399"
       inkscape:path-effect="#path-effect90485" />
    <path
       style="fill:#ffffff;fill-rule:evenodd;stroke:#000000;stroke-width:0.539;stroke-dasharray:none;stroke-opacity:1;paint-order:markers fill stroke"
       d="m 147.65336,253.39823 c -0.0141,-0.0282 -0.0282,-0.0565 -0.0423,-0.0847"
       id="path90487"
       inkscape:original-d="m 147.65336,253.39823 -0.0423,-0.0847"
       inkscape:path-effect="#path-effect90489" />
    <path
       style="fill:#ffffff;fill-rule:evenodd;stroke:#000000;stroke-width:0.639;stroke-dasharray:none;stroke-opacity:1;paint-order:markers fill stroke"
       d="m 126.06414,241.84164 c 7.66206,1.56628 8.75667,0.20741 8.75667,0.20741"
       id="path92669"
       sodipodi:nodetypes="cc" />
    <path
       style="fill:#ffffff;fill-rule:evenodd;stroke:#000000;stroke-width:0.739;stroke-dasharray:none;stroke-opacity:1;paint-order:markers fill stroke"
       d="m 127.84207,253.44056 c 5.84179,-8.88968 7.78906,-6.85775 7.78906,-6.85775"
       id="path94123" />
    <path
       style="fill:#ffffff;fill-rule:evenodd;stroke:#000000;stroke-width:0.739;stroke-dasharray:none;stroke-opacity:1;paint-order:markers fill stroke"
       d="m 136.30844,255.89581 c 1.56627,-8.55103 6.85775,-7.36574 6.85775,-7.36574"
       id="path94851" />
    <path
       style="fill:#ffffff;fill-rule:evenodd;stroke:#000000;stroke-width:0.956;stroke-dasharray:none;stroke-opacity:1;paint-order:markers fill stroke"
       d="m 117.93646,103.92776 c 0.83813,9.81806 4.31037,11.37459 4.31037,11.37459 l -4.07091,-0.35921 c -2.10919,0 -7.87555,-17.600662 0.11974,-21.432098"
       id="path95583"
       sodipodi:nodetypes="cccc"
       inkscape:transform-center-x="-1.6782646"
       inkscape:transform-center-y="-0.26200961" />
    <path
       style="fill:#ffffff;fill-rule:evenodd;stroke:#000000;stroke-width:0.956;stroke-dasharray:none;stroke-opacity:1;paint-order:markers fill stroke"
       d="M 118.05619,105.84348 Z"
       id="path95585" />
    <path
       style="fill:#ffffff;fill-rule:evenodd;stroke:#000000;stroke-width:0.956;stroke-dasharray:none;stroke-opacity:1;paint-order:markers fill stroke"
       d="m 118.48674,98.696622 c -1.37578,5.672468 -0.31749,5.524308 -0.31749,5.524308"
       id="path95587"
       sodipodi:nodetypes="cc" />
    <path
       style="fill:#ffffff;fill-rule:evenodd;stroke:#000000;stroke-width:0.977597;stroke-dasharray:none;stroke-opacity:1;paint-order:markers fill stroke"
       d="m 91.385621,96.355303 c 16.920449,9.922797 20.194859,0.653182 20.194859,0.653182 0,0 10.92574,-24.225786 4.23011,-30.299955 -7.78341,-7.060993 -22.511882,-1.849823 -25.194697,3.513455 -1.657411,3.313367 -2.275952,25.601737 0.769728,26.133318 z"
       id="path104349"
       sodipodi:nodetypes="ccssc" />
    <path
       style="fill:#ffffff;fill-rule:evenodd;stroke:#000000;stroke-width:1.28425;stroke-dasharray:none;stroke-opacity:1;paint-order:markers fill stroke"
       id="path113146-9"
       sodipodi:type="arc"
       sodipodi:cx="109.0082"
       sodipodi:cy="85.155251"
       sodipodi:rx="0.59273428"
       sodipodi:ry="0.90020365"
       sodipodi:start="3.2033088"
       sodipodi:end="6.2418333"
       sodipodi:arc-type="slice"
       d="m 108.4166,85.099729 a 0.59273428,0.90020365 0 0 1 0.59764,-0.844635 0.59273428,0.90020365 0 0 1 0.58619,0.862942 l -0.59223,0.03722 z" />
    <path
       style="fill:#ffffff;fill-rule:evenodd;stroke:#000000;stroke-width:0.938046;stroke-dasharray:none;stroke-opacity:1;paint-order:markers fill stroke"
       d="m 90.002783,71.351356 c 3.178444,0.608022 4.975856,0.559174 7.479816,0.867782 4.637861,0.571608 7.993831,1.223768 10.912561,0.866172 8.39,-1.027921 9.22347,-1.464819 9.22347,-1.464819 l 0.47012,3.059604 -0.28075,2.580766 c 0,0 -3.43042,1.5764 -7.97372,1.944835 -8.02373,0.650679 -19.346158,-0.128695 -20.142851,-3.315879 -0.248292,-0.993297 -0.44352,-1.443391 -0.318703,-2.037122 0.373925,-1.778694 0.630057,-2.501339 0.630057,-2.501339 z"
       id="path111619"
       sodipodi:nodetypes="csscccsssc" />
    <path
       style="fill:#ffffff;fill-rule:evenodd;stroke:#000000;stroke-width:0.956;stroke-dasharray:none;stroke-opacity:1;paint-order:markers fill stroke"
       d="m 92.706669,81.700398 c 6.265108,2.11659 7.027082,1.693273 7.027082,1.693273"
       id="path113073" />
    <path
       style="fill:#ffffff;fill-rule:evenodd;stroke:#000000;stroke-width:0.898166;stroke-dasharray:none;stroke-opacity:1;paint-order:markers fill stroke"
       d="m 113.56806,81.909093 c -5.43445,2.153808 -6.0954,1.723048 -6.0954,1.723048"
       id="path113073-2" />
    <path
       style="fill:#ffffff;fill-rule:evenodd;stroke:#000000;stroke-width:1.28986;stroke-dasharray:none;stroke-opacity:1;paint-order:markers fill stroke"
       id="path113146"
       sodipodi:type="arc"
       sodipodi:cx="97.405922"
       sodipodi:cy="85.132202"
       sodipodi:rx="0.54908627"
       sodipodi:ry="0.98027641"
       sodipodi:start="3.2033088"
       sodipodi:end="6.2418333"
       sodipodi:arc-type="slice"
       d="m 96.857881,85.071742 a 0.54908627,0.98027641 0 0 1 0.553632,-0.919765 0.54908627,0.98027641 0 0 1 0.543026,0.9397 l -0.548617,0.04053 z" />
    <path
       style="fill:#ffffff;fill-rule:evenodd;stroke:#000000;stroke-width:0.956;stroke-dasharray:none;stroke-opacity:1;paint-order:markers fill stroke"
       d="m 103.54361,86.356898 c 0.67731,3.97919 -0.0847,4.317844 -0.0847,4.317844 l -1.69328,-0.931299"
       id="path114631" />
    <path
       style="fill:#ffffff;fill-rule:evenodd;stroke:#000000;stroke-width:0.956;stroke-dasharray:none;stroke-opacity:1;paint-order:markers fill stroke"
       d="m 97.61716,92.008524 c 8.80502,1.710882 8.12771,3.585153 8.12771,3.585153"
       id="path115359" />
    <path
       style="fill:#ffffff;fill-rule:evenodd;stroke:#000000;stroke-width:0.976402;stroke-dasharray:none;stroke-opacity:1;paint-order:markers fill stroke"
       d="m 83.716875,167.5428 c 9.710093,9.81262 4.443471,13.30841 4.443471,13.30841 l -8.968855,2.44004 c 0,0 -1.554876,-1.48641 -2.287467,-3.16522 -0.282717,-0.64788 -0.646138,-2.0735 -0.02223,-2.56486 0.783638,-0.61717 -0.857854,-1.91304 -0.557936,-3.27516 0.08367,-0.38001 -0.101717,-0.74532 0.01369,-1.1419 0.146993,-0.50514 -0.03698,-1.15685 0.126052,-1.69194 0.254981,-0.83689 -0.719778,-1.58189 0.18087,-1.9447 2.770245,-1.11595 6.488717,-1.93474 6.488717,-1.93474 z"
       id="path121895"
       inkscape:transform-center-x="5.3338086"
       inkscape:transform-center-y="3.4924093"
       sodipodi:nodetypes="cccsssssscc" />
    <path
       style="fill:#ffffff;fill-rule:evenodd;stroke:#000000;stroke-width:0.990749;stroke-dasharray:none;stroke-opacity:1;paint-order:markers fill stroke"
       d="m 135.3051,161.86573 c -9.4226,11.01554 -4.08498,14.13158 -4.08498,14.13158 l 8.99936,1.68471 c 0,0 1.51101,-1.67641 2.19778,-3.475 0.26502,-0.69411 0.59043,-2.19747 -0.0438,-2.64624 -0.79672,-0.56366 0.80552,-2.05166 0.47162,-3.42813 -0.0932,-0.38399 0.0822,-0.77778 -0.0431,-1.17593 -0.15946,-0.50715 0.007,-1.19607 -0.16914,-1.73259 -0.2756,-0.83915 0.67649,-1.69748 -0.23027,-1.98809 -2.78899,-0.89385 -6.51514,-1.39352 -6.51514,-1.39352 z"
       id="path121895-6"
       inkscape:transform-center-x="-5.4057113"
       inkscape:transform-center-y="2.958938"
       sodipodi:nodetypes="cccsssssscc" />
    <path
       style="fill:#552200;fill-rule:evenodd;stroke:#000000;stroke-width:3.2702;stroke-dasharray:none;stroke-opacity:1;paint-order:markers fill stroke"
       d="m 380.57949,377.04555 c -13.53398,-3.67692 -34.8284,-14.08733 -36.5516,-17.86934 -3.16518,-6.94682 -5.34167,-35.17698 -4.21633,-54.68786 l 0.65426,-11.34328 4.29051,2.12335 c 16.49047,8.16104 73.54209,9.38305 92.98299,1.99163 4.71316,-1.79194 4.69876,-2.11247 0.63249,14.08203 -3.26742,13.01292 -7.86523,26.96243 -14.07977,42.71732 -5.8527,14.83755 -8.39921,18.48611 -15.48024,22.17962 -5.39735,2.81529 -19.36933,3.21444 -28.23231,0.80653 z m 21.269,-16.17609 c 0,-2.73649 -2.64076,-5.56356 -7.49428,-8.02303 -4.75394,-2.409 -24.08219,-7.73355 -25.3126,-6.97312 -0.37427,0.23131 -0.68049,1.19539 -0.68049,2.14239 0,1.7867 -0.087,1.75253 12.6709,4.98073 5.94025,1.5031 16.29115,6.41538 16.29115,7.73138 0,0.61855 1.58157,1.29509 3.84653,1.6454 0.37333,0.0578 0.67879,-0.61894 0.67879,-1.50375 z m -8.49203,-17.88501 c 1.21289,-1.8511 1.4085,-3.71123 1.00671,-9.57323 -0.27428,-4.00164 -0.65465,-7.43167 -0.84526,-7.62228 -0.19062,-0.19062 -1.24363,-0.11199 -2.34004,0.17473 -1.88589,0.49317 -1.96221,0.85753 -1.41437,6.75208 0.60687,6.52964 0.45002,6.84888 -2.57063,5.23228 -1.43252,-0.76666 -2.04594,-0.71412 -2.64184,0.22626 -1.42069,2.24201 -0.83382,3.42836 2.59017,5.23594 4.35864,2.30101 4.43189,2.29599 6.21526,-0.42578 z m -20.62514,-22.1392 c -0.33924,-3.55725 -0.29364,-3.62026 2.62013,-3.62026 1.63096,0 2.95242,-0.30546 2.93659,-0.67879 -0.0745,-1.75692 -2.66616,-3.84653 -4.7707,-3.84653 -1.2855,0 -6.93893,-1.39511 -12.56318,-3.10024 -5.62425,-1.70513 -10.28071,-3.02879 -10.34768,-2.94146 -0.067,0.0873 -0.39545,1.04994 -0.72994,2.13913 -0.55981,1.82287 0.0411,2.18826 7.55634,4.59485 4.93283,1.57962 7.84375,2.94522 7.35414,3.45003 -0.4457,0.45955 -1.09102,2.36284 -1.43405,4.22954 l -0.62369,3.39399 h 5.17365 5.17364 z m 44.50326,1.2981 c 0,-1.27719 -0.3829,-3.03763 -0.8509,-3.91209 -0.7364,-1.37597 -0.0361,-1.85556 5.20412,-3.56392 7.78416,-2.5377 8.64714,-3.12412 7.92868,-5.38777 -0.56891,-1.79247 -0.79097,-1.7632 -9.37376,1.23547 -4.83508,1.6893 -9.68434,3.07555 -10.77613,3.08057 -1.09179,0.005 -2.63022,0.9255 -3.41873,2.04552 -1.31218,1.86384 -1.30896,2.06265 0.0379,2.34622 1.10184,0.23197 1.38113,1.08477 1.11155,3.39399 l -0.36006,3.08417 h 5.24865 c 5.03104,0 5.24864,-0.0963 5.24864,-2.32216 z"
       id="path124291"
       transform="scale(0.26458333)" />
    <path
       style="fill:#552200;fill-rule:evenodd;stroke:#000000;stroke-width:3.2702;stroke-dasharray:none;stroke-opacity:1;paint-order:markers fill stroke"
       d="m 284.93722,636.03385 c -0.73898,-0.87113 -6.56116,-10.13672 -12.93818,-20.59021 -12.44045,-20.39293 -44.20486,-68.58642 -46.7973,-71.00164 -0.86441,-0.80533 -2.68783,-3.89423 -4.05203,-6.86424 -4.93535,-10.74475 -3.55075,-21.4591 3.74293,-28.96375 l 3.87103,-3.98301 3.31501,-17.2544 c 5.15056,-26.8083 8.02529,-34.38131 21.07282,-55.51287 l 7.17328,-11.61772 -1.73523,-5.12597 c -2.70681,-7.99612 -1.94412,-20.4097 1.73293,-28.20511 10.5393,-22.3435 36.73788,-29.37335 56.1662,-15.07104 5.77184,4.24899 10.72899,10.94692 13.49855,18.23877 2.50492,6.59509 2.334,21.27116 -0.34913,29.97732 -3.76432,12.21442 -10.43041,19.20286 -20.33242,21.31564 l -5.20412,1.11039 v 5.04678 c 0,24.37203 -9.12024,49.6979 -23.60391,65.54534 l -4.30829,4.71395 2.72646,4.0251 c 8.282,12.22681 17.78807,37.17541 25.27923,66.34514 3.34629,13.03005 8.87736,40.84066 8.22832,41.37255 -1.94501,1.59395 -22.37694,8.08284 -25.45085,8.08284 -0.38043,0 -1.29631,-0.71274 -2.0353,-1.58386 z M 269.31834,460.6125 c 4.23792,-8.66848 9.20634,-15.28961 12.18177,-16.23397 0.99276,-0.31509 1.78498,-1.36992 1.78498,-2.37666 0,-2.9087 -3.46808,-1.30203 -8.39421,3.88881 -5.5598,5.85858 -11.3429,17.74437 -16.99419,34.92757 -3.85676,11.7268 -4.20825,13.41085 -2.89581,13.87456 1.2323,0.4354 2.2647,-1.78234 5.89853,-12.6709 2.42263,-7.25927 6.21115,-16.8935 8.41893,-21.40941 z"
       id="path124293"
       transform="scale(0.26458333)" />
    <path
       style="fill:#552200;fill-rule:evenodd;stroke:#000000;stroke-width:3.2702;stroke-dasharray:none;stroke-opacity:1;paint-order:markers fill stroke"
       d="m 296.13119,685.16135 c -3.79301,-5.29687 -5.5134,-10.89022 -3.85859,-12.54504 1.37916,-1.37915 1.19683,-5.68431 -0.36898,-8.71224 -1.01982,-1.97212 -1.23761,-4.80748 -0.91768,-11.94715 0.48979,-10.93012 -0.63266,-9.86473 14.70083,-13.95341 9.14793,-2.4393 9.30558,-2.44985 11.22465,-0.75112 4.24172,3.75468 12.60047,15.18507 15.71955,21.4961 3.76082,7.60951 4.44287,14.46749 1.92339,19.33963 -1.62341,3.13932 -1.58738,3.12469 -19.59203,7.95348 -6.7201,1.80231 -12.89682,3.4719 -13.72605,3.71019 -1.0445,0.30016 -2.61288,-1.11011 -5.10509,-4.59044 z"
       id="path124295"
       transform="scale(0.26458333)" />
    <path
       style="fill:#552200;fill-rule:evenodd;stroke:#000000;stroke-width:3.2702;stroke-dasharray:none;stroke-opacity:1;paint-order:markers fill stroke"
       d="m 535.2194,613.6305 c -2.06047,-0.6499 -7.84949,-1.8998 -12.86448,-2.77755 l -9.11816,-1.5959 -0.61598,-4.10767 c -0.86363,-5.7591 0.22402,-27.93774 1.84888,-37.70113 1.98257,-11.91283 4.97668,-21.42359 12.67067,-40.24837 3.76388,-9.20903 6.8401,-17.15096 6.83605,-17.64875 -0.004,-0.49778 -2.54862,-2.07887 -5.65459,-3.51352 -7.1338,-3.29511 -18.06979,-14.11914 -25.36795,-25.10823 -6.29129,-9.47301 -14.91745,-27.36722 -18.37954,-38.12673 l -2.54819,-7.91931 -8.1853,-0.0661 c -9.98138,-0.0807 -12.44802,-1.28239 -16.53047,-8.05351 -3.9434,-6.54049 -6.21408,-13.79108 -8.37224,-26.73372 -1.84976,-11.09315 -1.85094,-11.0457 0.61974,-24.86139 0.76677,-4.28761 7.67397,-10.86661 15.4041,-14.67214 7.99803,-3.93742 16.75438,-4.17289 25.13031,-0.67577 6.02131,2.51401 16.20449,10.09498 19.67215,14.64514 5.28886,6.93987 11.20838,22.69836 10.45489,27.83221 -0.34417,2.34494 0.7092,3.77167 9.21766,12.48487 10.13439,10.37825 22.75645,25.54418 27.72904,33.31759 1.63221,2.55154 5.89418,11.01522 9.47105,18.80816 3.57688,7.79296 7.51949,15.07728 8.76136,16.18738 1.24187,1.11012 3.1676,2.85843 4.27941,3.88515 2.80478,2.59012 6.00224,11.50123 6.57907,18.33538 0.63093,7.47516 -1.00158,14.04325 -5.81596,23.39949 -3.17285,6.16612 -4.40937,10.17912 -6.98625,22.67316 -2.85477,13.84143 -3.80704,16.71135 -10.79198,32.5245 -7.96762,18.03783 -14.09043,27.42499 -19.50584,29.90527 -2.87379,1.3162 -3.1909,1.30867 -7.93745,-0.18846 z m 2.06632,-137.5795 c 0.67972,-1.77132 -9.87755,-21.04747 -16.21787,-29.61166 -2.67851,-3.61798 -7.16534,-8.6729 -9.97074,-11.23315 -8.05634,-7.35231 -16.93207,-10.84257 -16.93207,-6.6583 0,1.07451 0.60338,1.81013 1.48473,1.81013 3.31587,0 9.86046,4.37248 15.62011,10.43589 7.21697,7.5976 13.69104,17.19418 19.18524,28.43849 3.83786,7.85449 5.7143,9.72763 6.8306,6.8186 z"
       id="path124297"
       transform="scale(0.26458333)" />
    <path
       style="fill:#552200;fill-rule:evenodd;stroke:#000000;stroke-width:3.2702;stroke-dasharray:none;stroke-opacity:1;paint-order:markers fill stroke"
       d="m 513.29211,666.02193 c -10.17238,-1.9174 -16.30789,-3.50684 -17.41917,-4.51253 -6.70201,-6.06524 -2.40228,-22.02699 10.71057,-39.76056 l 5.8209,-7.87206 3.77748,0.56967 c 2.07761,0.31331 7.49064,1.39969 12.02895,2.41416 l 8.25147,1.8445 0.63821,9.52748 c 0.53127,7.93107 0.3723,10.26691 -0.9487,13.94051 -1.29042,3.58852 -1.38717,4.85142 -0.51784,6.75939 0.58799,1.2905 1.06908,3.48837 1.06908,4.88416 0,2.52961 -3.26444,9.51706 -6.17477,13.21694 l -1.53256,1.94833 z"
       id="path124299"
       transform="scale(0.26458333)" />
    <path
       style="fill:#552200;fill-rule:evenodd;stroke:#000000;stroke-width:3.2702;stroke-dasharray:none;stroke-opacity:1;paint-order:markers fill stroke"
       d="m 462.06226,867.8136 c -1.00831,-12.01593 -2.29264,-21.10537 -4.63693,-32.81638 -1.72173,-8.60096 -1.99163,-11.3972 -1.15028,-11.91719 0.76393,-0.47213 0.20903,-1.42852 -1.81886,-3.13487 -7.86719,-6.6198 -10.70086,-19.2461 -12.78694,-56.97606 -1.38131,-24.98308 -2.5355,-31.28156 -6.79998,-37.10763 -5.70789,-7.79805 -9.16586,-19.19027 -10.08576,-33.22739 l -0.58336,-8.90164 3.73729,-3.19898 c 5.08816,-4.35527 6.25215,-8.41728 4.86178,-16.96621 -0.5806,-3.56986 -1.32181,-9.23979 -1.64713,-12.59984 l -0.59151,-6.10919 7.13923,-0.0177 c 7.3073,-0.0181 22.53281,-1.79449 30.73657,-3.58613 3.06866,-0.67017 6.06977,-2.22637 9.05064,-4.69313 l 4.45965,-3.69049 1.05839,6.67251 c 4.63137,29.19795 6.07077,44.18322 6.12588,63.77498 0.0416,14.78613 -0.23992,20.35268 -1.08067,21.36848 -0.92052,1.11217 -0.78496,3.07741 0.71221,10.3248 6.77731,32.80726 10.31,63.24171 9.49599,81.80884 -0.52809,12.04563 -0.39405,13.82957 1.63214,21.72154 1.21412,4.72896 3.597,12.29321 5.2953,16.80946 l 3.08781,8.21135 -21.3091,5.28914 c -11.72001,2.90903 -21.98358,5.46243 -22.80794,5.67421 -1.26555,0.32512 -1.59153,-0.71962 -2.09442,-6.71252 z"
       id="path124301"
       transform="scale(0.26458333)" />
    <path
       style="fill:#552200;fill-rule:evenodd;stroke:#000000;stroke-width:3.2702;stroke-dasharray:none;stroke-opacity:1;paint-order:markers fill stroke"
       d="m 328.08576,865.38994 c -10.84296,-2.822 -14.45072,-4.10991 -14.3604,-5.12644 0.0663,-0.74668 0.95318,-4.47795 1.97076,-8.29173 2.53566,-9.50337 4.90813,-26.23194 4.7285,-33.34122 -0.42811,-16.94401 -0.006,-23.77763 2.21045,-35.75004 2.24301,-12.11813 11.02247,-47.83238 13.09863,-53.28431 0.79411,-2.08533 0.7232,-2.80276 -0.35783,-3.62026 -3.6839,-2.78584 -6.63303,-20.37 -5.48375,-32.69678 0.5586,-5.99126 0.74637,-6.40921 3.45638,-7.69305 8.52775,-4.03994 9.8772,-18.05781 2.93421,-30.48017 -2.08303,-3.72695 -2.09644,-3.91293 -0.78355,-10.8663 0.73466,-3.89096 1.47865,-7.21741 1.65332,-7.39213 0.17466,-0.17471 1.81501,0.82449 3.64522,2.22046 3.17995,2.42547 4.05629,2.59285 19.74459,3.77122 9.02931,0.67821 18.10845,1.42898 20.17586,1.66839 l 3.75891,0.43528 0.61192,6.5194 c 0.33655,3.58567 1.42862,10.38854 2.42681,15.1175 0.99819,4.72897 1.80331,9.34337 1.78916,10.25424 -0.0142,0.91086 1.37687,2.88763 3.09118,4.39281 3.76598,3.30658 3.82355,4.3587 0.93183,17.0302 -2.88414,12.63831 -5.34845,18.91868 -9.67396,24.65437 -5.68129,7.53348 -6.85388,13.37692 -9.40047,46.8457 -2.31993,30.48988 -4.77294,41.6315 -10.4061,47.26467 -1.88041,1.88041 -2.85593,3.41892 -2.16781,3.41892 1.77256,0 1.66543,0.31727 -2.36201,6.99487 -4.22697,7.00839 -9.72604,20.6783 -13.30936,33.08512 -1.39502,4.8301 -2.74004,8.74961 -2.98893,8.71005 -0.24889,-0.0396 -6.96899,-1.76791 -14.93356,-3.84077 z m 42.31035,-123.68985 c 1.09742,-2.19679 1.58288,-5.31765 1.58386,-10.18197 0.001,-6.41134 -0.15418,-7.01425 -1.80872,-7.01425 -1.65717,0 -1.81013,0.60338 -1.81013,7.14025 0,5.46649 -0.37128,7.58966 -1.58386,9.05747 -1.44964,1.75475 -1.79086,1.80818 -4.02646,0.63051 -2.13634,-1.12538 -2.58598,-1.11396 -3.5861,0.0911 -1.71884,2.07107 1.48823,4.04523 6.02869,3.71106 3.1191,-0.22957 3.83933,-0.70498 5.20272,-3.43418 z"
       id="path124303"
       transform="scale(0.26458333)" />
    <path
       style="fill:#552200;fill-rule:evenodd;stroke:#000000;stroke-width:3.2702;stroke-dasharray:none;stroke-opacity:1;paint-order:markers fill stroke"
       d="m 314.7775,956.99112 c -2.86258,-1.06906 -3.93053,-3.60496 -2.5805,-6.12752 0.52536,-0.98165 0.9552,-3.47057 0.9552,-5.53093 0,-3.07113 -0.28351,-3.69152 -1.57346,-3.4431 -0.86541,0.16666 -1.69583,1.1129 -1.84537,2.10276 -0.67688,4.48039 -1.25665,5.9121 -3.44934,8.51796 -2.79563,3.32242 -5.47865,3.58139 -6.81091,0.6574 -0.79219,-1.73869 -0.53084,-2.99294 1.42994,-6.86236 2.76597,-5.45837 2.79372,-9.56391 0.0647,-9.56391 -1.22768,0 -2.03687,0.90874 -2.62014,2.94246 -0.46413,1.61835 -2.15705,4.46156 -3.76202,6.31824 -2.55387,2.95439 -3.10378,3.22172 -4.40527,2.14158 -1.01411,-0.84164 -1.20445,-1.57482 -0.5984,-2.30506 0.4888,-0.58897 1.16082,-3.38589 1.49337,-6.21537 0.56886,-4.84015 0.49017,-5.14451 -1.3301,-5.14451 -1.4276,0 -1.93474,0.5577 -1.93474,2.1276 0,2.44196 -1.66254,7.75528 -2.93755,9.38813 -0.67626,0.86606 -1.41294,0.82404 -3.37926,-0.19279 -3.09085,-1.59834 -3.63983,-2.94348 -3.63552,-8.90804 0.004,-5.06344 2.56785,-10.56048 4.92612,-10.56048 4.39139,0 33.53839,7.94731 41.90234,11.42521 l 5.65142,2.34998 -0.57523,3.74691 c -1.52938,9.9621 -8.08831,15.71157 -14.98523,13.13584 z"
       id="path124305"
       transform="scale(0.26458333)" />
    <path
       style="fill:#552200;fill-rule:evenodd;stroke:#000000;stroke-width:3.2702;stroke-dasharray:none;stroke-opacity:1;paint-order:markers fill stroke"
       d="m 529.91507,985.0686 c -11.40877,-2.69754 -65.50313,-18.39351 -67.27661,-19.52091 -2.81413,-1.78895 -4.67798,-6.50424 -4.66715,-11.80725 0.01,-4.81182 2.9609,-12.02454 7.09053,-17.32998 1.40817,-1.80911 3.9152,-7.26026 5.57119,-12.11367 1.79483,-5.26031 3.49956,-8.82438 4.22081,-8.82438 1.56195,0 1.69279,-0.68811 -1.92445,10.12183 -3.96639,11.85339 -5.61908,21.08941 -4.41832,24.6917 0.78269,2.34807 1.62789,2.85174 7.16151,4.26765 3.45075,0.88295 6.54486,1.61467 6.87581,1.62604 0.33094,0.0114 2.14253,-2.11754 4.02574,-4.73092 6.03621,-8.37656 12.25989,-15.17313 16.54372,-18.06657 2.29384,-1.54934 4.30498,-2.91927 4.4692,-3.04431 0.16422,-0.12503 -0.39694,-1.28885 -1.24703,-2.58625 -1.10834,-1.69153 -1.41631,-3.50618 -1.08856,-6.41398 l 0.45706,-4.05506 h -7.18223 c -8.41953,0 -19.81137,-1.57587 -21.10494,-2.91952 -0.62281,-0.64692 0.0618,-0.75879 2.19538,-0.35872 7.64463,1.4335 19.88798,2.41248 23.70919,1.89578 3.04323,-0.41149 4.45188,-1.1017 5.1697,-2.53303 2.06362,-4.11489 3.1135,-13.41324 3.39007,-30.02442 0.15747,-9.45792 0.34813,-17.39985 0.42369,-17.64875 0.0756,-0.24889 0.46346,0.56567 0.86201,1.81013 1.06849,3.33637 1.04832,24.66891 -0.0317,33.51112 -0.98498,8.06425 -2.38806,13.55222 -3.46483,13.55222 -0.35251,0 -0.72968,0.71274 -0.83815,1.58386 -0.10847,0.87113 -0.43328,3.429 -0.7218,5.68417 -0.46119,3.60479 -0.23287,4.39203 1.88929,6.51419 2.93688,2.93688 8.12951,4.68295 19.45832,6.54303 6.11734,1.00441 10.42605,2.34993 14.93356,4.66343 3.4845,1.78843 9.49186,4.83108 13.3497,6.76143 3.85783,1.93036 7.01425,3.9074 7.01425,4.39344 0,0.48603 1.01819,2.38409 2.26266,4.21791 3.80813,5.61159 2.88687,10.43682 -3.26737,17.11338 -8.58386,9.3124 -24.17129,15.31259 -33.84027,13.02641 z m 14.0285,-3.73111 c 8.41686,-2.51777 18.44096,-9.71264 21.3385,-15.31586 1.48227,-2.86639 1.65745,-6.94426 0.38304,-8.91626 -0.76132,-1.17806 -0.87918,-1.16071 -0.89121,0.13119 -0.01,1.07347 -1.02611,1.58534 -3.64235,1.83484 -4.04194,0.38546 -4.61284,-1.32492 -0.60076,-1.79988 1.58818,-0.18802 2.39458,-0.80978 2.34767,-1.81013 -0.0442,-0.94183 -0.24579,-1.09169 -0.52795,-0.39242 -0.73501,1.82155 -3.65898,1.30355 -5.44409,-0.96446 -1.43965,-1.8291 -6.31379,-4.23966 -8.57258,-4.23966 -1.69309,0 -0.62961,1.90831 1.51865,2.72508 3.07275,1.16826 6.41301,4.50555 7.01059,7.00436 0.40155,1.67914 0.10793,2.0364 -1.6737,2.0364 -1.56957,0 -2.32153,-0.64088 -2.74863,-2.34259 -0.79939,-3.18502 -7.41048,-7.98551 -9.0843,-6.59636 -1.81561,1.50682 -1.56778,1.9631 2.39725,4.41363 3.02718,1.8709 3.62025,2.72138 3.62025,5.19151 0,2.7727 -0.19448,2.95406 -3.16772,2.95406 -2.26567,0 -3.16772,-0.4018 -3.16772,-1.41101 0,-0.77606 -0.34773,-1.19611 -0.77272,-0.93344 -0.425,0.26266 -1.25481,-0.58049 -1.84402,-1.87367 -0.58921,-1.29318 -1.33257,-2.08997 -1.65192,-1.77062 -0.31934,0.31934 0.30683,1.78095 1.39149,3.24804 1.08465,1.46707 1.9721,2.99229 1.9721,3.38937 0,0.39709 1.83276,0.57621 4.07279,0.39805 3.88928,-0.30933 4.07403,-0.45235 4.10031,-3.17424 0.02,-2.07253 0.24461,-2.47986 0.82308,-1.49273 0.43755,0.74667 0.58133,2.47761 0.31949,3.84652 -0.42994,2.24787 -0.84681,2.48893 -4.30427,2.48893 -2.10553,0 -5.20516,0.68689 -6.88807,1.52645 -6.55223,3.26867 -14.86095,2.59411 -28.89551,-2.34596 -4.23118,-1.48935 -14.20951,-4.38717 -22.17407,-6.4396 -7.96457,-2.05243 -16.03913,-4.13371 -17.94348,-4.62506 -4.28163,-1.10473 -6.46949,-5.40671 -5.79465,-11.39394 0.24015,-2.1306 0.12954,-3.87382 -0.2458,-3.87382 -0.37534,0 -1.54714,2.01008 -2.60401,4.46684 -2.25442,5.24054 -2.48092,11.7464 -0.5487,15.76032 1.34423,2.79245 1.9062,3.00225 26.92566,10.05225 46.35742,13.06263 45.85642,12.96926 54.96736,10.24387 z M 531.7252,969.16355 c -2.98671,-0.17758 -6.24494,-0.67258 -7.24051,-1.09998 -0.99557,-0.42742 -2.8988,-1.21209 -4.22941,-1.74374 -1.38805,-0.55459 -2.58932,-1.85642 -2.8182,-3.05415 -0.34367,-1.79838 -0.416,-1.73189 -0.52218,0.48001 -0.0995,2.07356 0.39915,2.76474 2.59194,3.59242 1.49335,0.56368 2.71519,1.28552 2.71519,1.60408 0,0.31858 3.36005,0.57135 7.46678,0.56173 5.68253,-0.0133 6.16914,-0.0946 2.03639,-0.34037 z m 8.59055,-1.17358 c 1.07517,-0.67975 1.12124,-1.08231 0.22626,-1.97729 -0.89497,-0.89497 -1.12376,-0.82587 -1.12376,0.33943 0,0.80474 -0.5091,1.66861 -1.13133,1.91968 -0.62223,0.25108 -0.72405,0.48242 -0.22627,0.5141 0.49779,0.0317 1.51258,-0.32649 2.2551,-0.79592 z m -24.98248,-5.68049 c 0.78781,-4.18887 5.24957,-13.26372 8.29582,-16.87301 1.42547,-1.68894 4.55796,-3.98175 6.96109,-5.09514 l 4.36933,-2.02434 -7.24596,-1.0595 c -8.429,-1.23248 -15.66926,-3.49739 -14.94197,-4.67417 0.77681,-1.2569 -1.99779,-0.97613 -5.73845,0.58069 -4.38258,1.82397 -9.9784,7.26361 -16.71483,16.24831 -3.60082,4.80258 -5.00993,7.33595 -4.18497,7.52395 0.68405,0.1559 7.14927,2.03727 14.36716,4.18085 7.21789,2.14357 13.38356,3.9506 13.7015,4.01561 0.31794,0.065 0.82702,-1.20544 1.13128,-2.82325 z m 23.17991,0.22627 c -0.53281,-0.99557 -1.55255,-1.81013 -2.26609,-1.81013 -0.76481,0 -1.08947,-0.54172 -0.79094,-1.3197 0.69084,-1.80029 -4.0718,-3.04061 -5.12597,-1.33493 -1.07483,1.73911 -0.40484,2.37022 3.24272,3.0545 1.77391,0.33278 3.4511,1.19352 3.72709,1.91272 0.27598,0.71922 0.87983,1.30767 1.34187,1.30767 0.47383,0 0.41773,-0.78915 -0.12868,-1.81013 z m -18.56073,-5.88292 c 0.39621,-1.87515 0.30989,-2.29517 -0.27901,-1.35759 -1.38269,2.20137 -2.33477,6.03133 -1.23744,4.97785 0.51851,-0.49779 1.20091,-2.1269 1.51645,-3.62026 z m 2.09479,-5.45433 c -0.27866,-0.27866 -0.78474,0.22365 -1.12462,1.11624 -0.49116,1.2899 -0.3872,1.39386 0.50665,0.50665 0.61854,-0.61393 0.89662,-1.34423 0.61797,-1.62289 z m 41.05513,-0.63815 c -0.67162,-0.67162 -0.7894,-0.31825 -0.39573,1.18718 0.32004,1.22383 0.7303,1.63409 0.95625,0.95625 0.21765,-0.65295 -0.0346,-1.6175 -0.56052,-2.14343 z m -38.58047,-1.66078 c 0.9741,-1.57611 -0.13532,-1.9099 -1.37665,-0.41419 -0.71387,0.86016 -0.78253,1.37947 -0.18239,1.37947 0.52936,0 1.23093,-0.43437 1.55904,-0.96528 z m 32.09257,-1.66263 c -4.09972,-2.12619 -8.14558,-3.09301 -8.14558,-1.9465 0,0.48976 0.8637,1.35271 1.91935,1.91767 1.34897,0.72195 1.73654,0.73141 1.30418,0.0318 -0.83015,-1.34321 0.37367,-1.20308 3.11192,0.36224 1.24446,0.7114 2.87358,1.28989 3.62026,1.28553 0.74667,-0.004 -0.0679,-0.74721 -1.81013,-1.65078 z m -27.15193,-3.70754 c 0,-0.49778 -0.1796,-0.90506 -0.39912,-0.90506 -0.21951,0 -0.65083,0.40728 -0.95847,0.90506 -0.30765,0.49779 -0.12805,0.90507 0.39911,0.90507 0.52717,0 0.95848,-0.40728 0.95848,-0.90507 z m 18.10129,0.47578 c 0,-0.23611 -1.32366,-1.1075 -2.94146,-1.93642 -1.6178,-0.82892 -3.1451,-1.77281 -3.39399,-2.09754 -0.2489,-0.32473 -1.67437,-0.31609 -3.16773,0.0192 -2.50488,0.56241 -2.53993,0.62086 -0.45253,0.75465 1.24446,0.0798 3.68814,0.92543 5.43039,1.87927 3.21078,1.75783 4.52532,2.15894 4.52532,1.38084 z m -12.6709,-2.83527 c 0,-0.19563 -0.61092,-0.3557 -1.3576,-0.3557 -0.74668,0 -1.3576,0.3945 -1.3576,0.87666 0,0.48216 0.61092,0.64223 1.3576,0.3557 0.74668,-0.28653 1.3576,-0.68102 1.3576,-0.87666 z"
       id="path124307"
       transform="scale(0.26458333)" />
    <path
       style="fill:#552200;fill-rule:evenodd;stroke:#000000;stroke-width:3.2702;stroke-dasharray:none;stroke-opacity:1;paint-order:markers fill stroke"
       d="m 500.72675,959.05706 c -6.09787,-1.81423 -11.08703,-3.67128 -11.08703,-4.12677 0,-2.61689 12.94802,-16.89711 17.41548,-19.20732 2.34406,-1.21216 3.03932,-1.17096 7.32997,0.43438 2.60714,0.97546 6.61594,2.05484 8.90844,2.39862 l 4.16817,0.62505 -3.39,3.06266 c -3.47684,3.14111 -8.03063,10.86977 -9.95649,16.89808 -0.59636,1.86669 -1.35816,3.35347 -1.69289,3.30395 -0.33473,-0.0495 -5.59778,-1.57442 -11.69565,-3.38865 z"
       id="path124309"
       transform="scale(0.26458333)" />
    <path
       style="fill:#552200;fill-rule:evenodd;stroke:#000000;stroke-width:3.2702;stroke-dasharray:none;stroke-opacity:1;paint-order:markers fill stroke;fill-opacity:1"
       d="m 474.81732,952.02015 -4.41417,-1.37214 0.45143,-6.50076 c 0.27587,-3.97268 1.75761,-10.4959 3.81018,-16.77394 3.30414,-10.10614 3.39801,-10.26393 5.77287,-9.70405 1.32776,0.31302 6.99599,0.81815 12.59608,1.12251 l 10.18197,0.55338 0.0139,3.72028 c 0.008,2.04616 0.36829,4.27982 0.80148,4.96369 0.5681,0.89686 -0.50783,2.29496 -3.86038,5.01631 -2.55641,2.07509 -7.57746,7.4211 -11.1579,11.88002 -3.58045,4.45892 -7.24596,8.18806 -8.14558,8.28698 -0.89963,0.0989 -3.62206,-0.43761 -6.04985,-1.19228 z"
       id="path124311"
       transform="scale(0.26458333)" />
    <path
       style="fill:#552200;fill-opacity:1;fill-rule:evenodd;stroke:#000000;stroke-width:2.31238;stroke-dasharray:none;stroke-opacity:1;paint-order:markers fill stroke"
       d="m 381.74629,272.58731 c -6.33577,-0.83946 -16.12742,-1.97667 -21.75922,-2.52713 -5.6318,-0.55047 -11.61112,-1.20537 -13.28738,-1.45533 l -3.04774,-0.45448 1.12781,-2.06741 c 4.9232,-9.02476 19.00143,-17.65553 36.00656,-22.07412 10.24564,-2.66221 23.57675,-3.1625 32.88747,-1.2342 7.59439,1.57284 16.40347,5.71513 21.32306,10.02675 3.64827,3.1974 6.91453,9.00514 7.60409,13.52081 l 0.40492,2.65167 -3.37694,0.72422 c -1.85732,0.39833 -9.37966,1.58099 -16.71631,2.62814 -16.42517,2.34435 -25.03091,2.39893 -41.16632,0.26108 z"
       id="path124477"
       transform="scale(0.26458333)" />
    <path
       style="fill:#552200;fill-opacity:1;fill-rule:evenodd;stroke:#000000;stroke-width:2.31238;stroke-dasharray:none;stroke-opacity:1;paint-order:markers fill stroke"
       d="m 385.58615,426.80648 c -26.75104,-2.23658 -49.53076,-4.22331 -50.62161,-4.41496 l -1.98335,-0.34844 0.8509,-3.28032 c 1.52281,-5.87056 2.27085,-16.20006 1.54902,-21.38985 -2.01397,-14.47988 -10.16839,-26.11057 -22.79347,-32.51042 l -3.0196,-1.53069 3.45029,-0.75326 c 2.93254,-0.64023 13.51405,-2.25836 23.38996,-3.57682 2.57065,-0.34318 2.68448,-0.28183 3.37846,1.82094 0.96761,2.93189 2.4528,4.17619 9.96069,8.34512 30.6369,17.01184 56.44161,19.02412 69.1896,5.39549 2.86009,-3.05766 6.02668,-9.09878 9.27033,-17.68563 l 1.5372,-4.0694 4.15985,0.38498 c 2.28791,0.21174 5.09665,0.38703 6.24162,0.38953 l 2.08176,0.005 -2.40175,2.17942 c -10.34076,9.38347 -13.11288,30.38402 -7.18865,54.45855 1.90534,7.7428 5.03346,16.69987 6.76094,19.3593 0.92592,1.42542 0.90452,1.43919 -2.11929,1.36419 -1.68006,-0.0417 -24.94186,-1.90569 -51.6929,-4.14228 z"
       id="path124479"
       transform="scale(0.26458333)" />
    <path
       style="fill:#808080;fill-opacity:1;fill-rule:evenodd;stroke:#000000;stroke-width:3.2702;stroke-dasharray:none;stroke-opacity:1;paint-order:markers fill stroke"
       d="m 341.81887,505.25208 c -0.91499,-23.25593 -4.6161,-43.06268 -11.3734,-60.86557 l -3.43528,-9.05064 2.34791,-4.28602 c 2.70978,-4.94657 1.93119,-4.80806 16.85597,-2.99869 17.4594,2.11664 47.29926,4.85714 69.21039,6.3563 11.20017,0.76632 22.62028,1.8353 25.37803,2.37553 2.75775,0.54023 6.21962,0.88331 7.69305,0.7624 1.47342,-0.12091 4.58722,-0.15841 6.91953,-0.0833 l 4.24058,0.13649 -3.45366,7.47544 c -11.22943,24.30605 -12.64218,43.76474 -4.50051,61.98823 1.38996,3.11116 2.40088,5.65666 2.24649,5.65666 -0.15439,0 -2.26707,-0.89009 -4.69482,-1.97798 -6.37449,-2.85642 -20.70925,-2.60943 -34.63095,0.5967 -8.25004,1.89997 -10.79677,2.16656 -13.50678,1.41388 -3.66054,-1.01668 -13.6639,-1.26042 -15.93659,-0.38831 -0.78739,0.30216 -1.43162,1.07425 -1.43162,1.71577 0,0.92602 -3.9124,1.09328 -18.98485,0.81161 l -18.98485,-0.35479 -1.40234,2.71181 c -0.77128,1.4915 -1.53178,2.71182 -1.68999,2.71182 -0.15821,0 -0.54805,-6.61828 -0.86631,-14.70729 z"
       id="path124550"
       transform="scale(0.26458333)" />
    <path
       style="fill:#808080;fill-opacity:1;fill-rule:evenodd;stroke:#000000;stroke-width:3.2702;stroke-dasharray:none;stroke-opacity:1;paint-order:markers fill stroke"
       d="m 449.14285,432.41884 c -2.33059,-0.28941 -3.40665,-1.16658 -5.21366,-4.25001 -4.48006,-7.64463 -8.64156,-22.96738 -9.99955,-36.81859 -1.2921,-13.1791 3.52766,-28.41632 10.51636,-33.2465 1.92064,-1.32744 3.50753,-2.82871 3.52642,-3.33617 0.034,-0.91318 12.61018,-0.81403 15.39741,0.12139 0.88348,0.29651 -0.0597,1.27238 -2.79056,2.88724 -5.77394,3.41436 -11.13206,8.21439 -13.33107,11.94254 -1.02765,1.74227 -2.48914,6.72704 -3.24776,11.07728 -1.23532,7.08385 -1.23549,8.87895 -0.002,17.19619 2.05772,13.87039 4.01912,21.10896 7.71115,28.45817 2.6411,5.25728 3.02221,6.59296 1.84834,6.47798 -0.81333,-0.0797 -2.8003,-0.30894 -4.41548,-0.50952 z"
       id="path124552"
       transform="scale(0.26458333)" />
    <path
       style="fill:#808080;fill-opacity:1;fill-rule:evenodd;stroke:#000000;stroke-width:3.2702;stroke-dasharray:none;stroke-opacity:1;paint-order:markers fill stroke"
       d="m 426.37399,546.60233 c -2.62303,-10.45834 -7.13135,-20.05641 -11.79948,-25.12074 l -3.76382,-4.08326 5.24834,-1.57858 c 3.20744,-0.96472 9.56486,-1.74125 16.34859,-1.9969 l 11.10025,-0.41833 7.17563,3.48047 7.17563,3.48047 -1.79524,2.90476 -1.79524,2.90476 3.28527,1.55897 c 4.02989,1.9123 7.07062,6.36071 9.91802,14.5095 1.6895,4.83502 1.91286,6.34572 1.01272,6.84946 -1.38976,0.77775 -23.61308,4.04283 -33.23578,4.88304 l -6.87498,0.60029 z"
       id="path124554"
       transform="scale(0.26458333)" />
    <path
       style="fill:#808080;fill-opacity:1;fill-rule:evenodd;stroke:#000000;stroke-width:3.2702;stroke-dasharray:none;stroke-opacity:1;paint-order:markers fill stroke"
       d=""
       id="path124556"
       transform="scale(0.26458333)" />
    <path
       style="fill:#808080;fill-opacity:1;fill-rule:evenodd;stroke:#000000;stroke-width:3.2702;stroke-dasharray:none;stroke-opacity:1;paint-order:markers fill stroke"
       d="m 431.29904,586.55395 c -0.2056,-1.03537 -0.58849,-5.95528 -0.85087,-10.93313 -0.26238,-4.97786 -0.74058,-10.9105 -1.06267,-13.18366 l -0.5856,-4.13301 11.18729,-1.1348 c 6.15302,-0.62414 15.46373,-1.86453 20.69048,-2.75643 5.22674,-0.8919 9.67052,-1.47651 9.87505,-1.29913 1.00097,0.86805 5.48518,26.96769 4.75826,27.69462 -1.17215,1.17214 -20.4694,4.90145 -32.98225,6.37401 -10.55651,1.24233 -10.65937,1.23647 -11.02969,-0.62847 z"
       id="path124558"
       transform="scale(0.26458333)" />
    <path
       style="fill:#808080;fill-opacity:1;fill-rule:evenodd;stroke:#000000;stroke-width:3.2702;stroke-dasharray:none;stroke-opacity:1;paint-order:markers fill stroke"
       d="m 431.11612,629.47637 c 0.32972,-6.13206 0.59949,-16.98304 0.59949,-24.11329 0,-12.72573 0.0374,-12.97124 2.0364,-13.35268 1.12001,-0.21372 8.64831,-1.26371 16.72955,-2.3333 8.08124,-1.06958 17.33027,-2.67595 20.5534,-3.5697 l 5.86023,-1.62499 1.00392,5.07238 c 0.55216,2.7898 2.46933,10.57064 4.26036,17.29074 3.73376,14.00933 4.37629,18.88376 2.74394,20.81648 -5.64581,6.68469 -21.23745,11.07026 -43.97385,12.36883 l -10.41292,0.59472 z"
       id="path124560"
       transform="scale(0.26458333)" />
    <path
       style="fill:#808080;fill-opacity:1;fill-rule:evenodd;stroke:#000000;stroke-width:3.2702;stroke-dasharray:none;stroke-opacity:1;paint-order:markers fill stroke"
       d="m 355.69022,637.9525 c -7.90492,-0.71199 -15.27341,-1.85097 -16.88047,-2.60929 -1.56858,-0.74016 -3.28519,-1.34576 -3.81468,-1.34576 -0.52949,0 -1.3322,-0.71273 -1.78381,-1.58386 -1.28883,-2.48609 -1.92509,-15.22525 -1.23179,-24.663 l 0.63161,-8.59811 19.91142,-1.0595 c 10.95127,-0.58272 22.25326,-1.25684 25.11553,-1.49803 l 5.20412,-0.43854 0.004,10.09615 c 0.002,5.55288 0.26851,15.28895 0.5922,21.63571 l 0.58853,11.53957 -7.15392,-0.1059 c -3.93465,-0.0583 -13.46674,-0.6745 -21.18241,-1.36944 z"
       id="path124562"
       transform="scale(0.26458333)" />
    <path
       style="fill:#808080;fill-opacity:1;fill-rule:evenodd;stroke:#000000;stroke-width:3.2702;stroke-dasharray:none;stroke-opacity:1;paint-order:markers fill stroke"
       d="m 333.57102,589.87558 c 0.35072,-2.86227 1.2964,-9.67129 2.10152,-15.13115 l 1.46387,-9.92703 4.15615,0.25716 c 3.78979,0.23449 21.79695,-0.86389 35.89293,-2.18935 l 5.65666,-0.5319 v 14.95014 14.95014 l -3.84653,0.4894 c -4.75042,0.6044 -35.7353,2.34261 -41.69807,2.3392 l -4.36418,-0.002 z"
       id="path124564"
       transform="scale(0.26458333)" />
    <path
       style="fill:#808080;fill-opacity:1;fill-rule:evenodd;stroke:#000000;stroke-width:3.2702;stroke-dasharray:none;stroke-opacity:1;paint-order:markers fill stroke"
       d="m 338.12143,559.10339 c 4.60864,-23.54197 4.69293,-24.16077 3.41838,-25.09394 -1.03728,-0.75945 -0.55464,-2.06982 2.67475,-7.2621 l 3.9404,-6.33545 5.80403,-0.72375 c 5.71641,-0.71282 17.03475,-0.34395 25.52552,0.8319 l 4.33541,0.60039 -0.61158,18.65208 c -0.33637,10.25864 -0.66839,18.73016 -0.73782,18.82559 -0.24063,0.33074 -36.30387,2.99203 -40.5599,2.99312 -4.18013,10e-4 -4.26546,-0.055 -3.78919,-2.48784 z"
       id="path124566"
       transform="scale(0.26458333)" />
    <path
       style="fill:#808080;fill-opacity:1;fill-rule:evenodd;stroke:#000000;stroke-width:3.2702;stroke-dasharray:none;stroke-opacity:1;paint-order:markers fill stroke"
       d="m 400.94343,678.24287 c 0,-0.60494 -1.08534,-0.84849 -2.71519,-0.60928 -1.49336,0.21918 -2.7152,0.31113 -2.7152,0.20434 0,-0.10679 1.19736,-2.78539 2.66079,-5.95243 5.28224,-11.43145 7.28928,-28.84516 7.28762,-63.22984 -9.3e-4,-19.25463 -1.31625,-52.30883 -2.11323,-53.10581 -0.12165,-0.12165 -1.16304,0.0251 -2.31421,0.32616 -2.02863,0.53049 -2.07659,0.77307 -1.55872,7.88341 0.29388,4.03484 0.79682,11.91796 1.11767,17.51805 0.571,9.96642 0.54256,10.18197 -1.34322,10.18197 -1.32319,0 -1.92657,0.56691 -1.92657,1.81013 0,1.20675 0.60338,1.81013 1.81013,1.81013 1.75086,0 1.81013,0.60337 1.81013,18.42749 0,10.13512 -0.259,20.31709 -0.57555,22.62661 -0.57179,4.17166 -0.59841,4.1991 -4.07279,4.1991 -3.12701,0 -3.49724,0.23954 -3.49724,2.26266 0,2.02013 0.37201,2.26266 3.47046,2.26266 h 3.47046 l -0.76739,5.65666 c -0.9014,6.64444 -2.85296,14.61279 -4.6289,18.90012 l -1.26245,3.04768 -1.51235,-8.59811 c -0.83179,-4.72896 -1.93934,-12.87454 -2.46121,-18.10128 -1.29742,-12.99406 -2.12588,-81.60605 -1.3032,-107.9289 l 0.6718,-21.49528 h 4.26283 c 13.53268,0 22.78363,9.47552 28.45541,29.14616 1.91673,6.64751 4.01964,19.07513 2.78606,16.46486 -0.77281,-1.63528 -5.05615,-0.38206 -4.56807,1.33652 0.23014,0.81037 0.69821,7.07348 1.04015,13.91803 0.60325,12.07515 0.5676,12.44463 -1.20075,12.44463 -1.00235,0 -2.06967,0.64423 -2.37182,1.43162 -0.80805,2.10575 -0.74664,2.18864 1.62145,2.18864 2.02729,0 2.21361,0.42626 2.81833,6.44781 0.62176,6.19127 0.0762,25.2957 -1.04049,36.43468 l -0.53356,5.32233 -5.3278,-0.55687 -5.3278,-0.55687 v 2.70132 c 0,2.67094 0.056,2.70132 4.97785,2.70132 5.84233,0 5.72899,-0.38163 3.22572,10.86077 -1.953,8.77108 -4.60778,15.4183 -7.8615,19.68414 -1.76754,2.31737 -2.90748,2.94246 -5.36599,2.94246 -1.71691,0 -3.12166,-0.4535 -3.12166,-1.00779 z"
       id="path124568"
       transform="scale(0.26458333)" />
    <path
       style="fill:#808080;fill-opacity:1;fill-rule:evenodd;stroke:#000000;stroke-width:2.31238;stroke-dasharray:none;stroke-opacity:1;paint-order:markers fill stroke"
       d="m 328.23237,906.55379 c -5.84784,-1.23363 -20.71479,-6.07804 -26.0827,-8.49908 l -3.20809,-1.44691 2.28199,-3.83986 c 3.28999,-5.536 6.32203,-13.43547 8.30792,-21.64484 0.95184,-3.93477 1.79819,-7.25019 1.88078,-7.3676 0.22397,-0.31838 31.84757,8.93945 32.47416,9.50683 0.29632,0.26832 -0.63507,4.76685 -2.06974,9.99673 -2.85202,10.39656 -4.21416,18.50138 -3.58833,21.35076 0.31322,1.42611 0.12011,1.97929 -0.87732,2.5131 -1.64892,0.88247 -2.48487,0.8303 -9.11867,-0.56913 z"
       id="path124574"
       transform="scale(0.26458333)" />
    <path
       style="fill:#808080;fill-opacity:1;fill-rule:evenodd;stroke:#000000;stroke-width:2.31238;stroke-dasharray:none;stroke-opacity:1;paint-order:markers fill stroke"
       d="m 490.86237,913.51012 c -2.99189,-0.28745 -7.39485,-0.85208 -9.78436,-1.25474 l -4.34456,-0.7321 -2.76527,-5.53781 c -4.14827,-8.30745 -11.88219,-27.91575 -11.226,-28.46201 0.33054,-0.27517 46.08611,-10.68435 46.93959,-10.67854 0.74859,0.005 -0.0112,30.79933 -0.90774,36.78876 -0.36765,2.45628 -0.98979,5.53846 -1.38252,6.84928 -1.12746,3.76313 -3.7912,4.25097 -16.52914,3.02716 z"
       id="path124576"
       transform="scale(0.26458333)" />
    <path
       style="fill:#808080;fill-opacity:1;fill-rule:evenodd;stroke:#000000;stroke-width:0.408775;stroke-dasharray:none;stroke-opacity:1;paint-order:markers fill stroke"
       d="m 534.63626,981.03392 c -5.15011,-0.49593 -11.10328,-1.99474 -38.49139,-9.69083 -23.31468,-6.55144 -27.75605,-7.87813 -30.37622,-9.07372 -1.2708,-0.57987 -1.66034,-0.93637 -2.15793,-1.97487 -0.75069,-1.56672 -1.02312,-2.86384 -1.09336,-5.20569 -0.0388,-1.293 -0.009,-2.44989 0.082,-3.22429 0.13157,-1.11556 0.63244,-3.42872 0.88619,-4.09263 0.10597,-0.27727 0.10937,-0.27505 0.17267,0.11314 0.0355,0.21778 0.0952,0.70142 0.13268,1.07476 0.11089,1.10536 0.59308,2.75687 1.12487,3.85275 1.05006,2.16389 2.62841,3.67138 4.70992,4.49849 0.4102,0.163 5.50119,1.5232 11.3133,3.02267 15.95209,4.11547 21.7987,5.76659 30.02635,8.47965 5.35786,1.76675 6.69728,2.17383 9.27691,2.81943 8.78933,2.19972 14.83761,2.06988 20.40076,-0.43793 2.30488,-1.03902 4.08119,-1.42175 7.31683,-1.57649 2.49208,-0.11918 3.1259,-0.28887 3.90568,-1.04562 0.8325,-0.80791 1.35462,-2.44523 1.35538,-4.25037 l 3.4e-4,-0.88155 1.7249,-0.0127 c 1.46382,-0.0108 1.88759,-0.0562 2.79967,-0.30019 0.59112,-0.15814 1.20754,-0.33935 1.36983,-0.40269 l 0.29505,-0.11515 -0.14948,-0.77256 c -0.0822,-0.4249 -0.15135,-0.82871 -0.15364,-0.89735 -0.003,-0.0824 0.54358,-0.14693 1.60799,-0.18996 1.4791,-0.0598 3.05045,-0.34321 3.83114,-0.69105 0.27756,-0.12366 0.34529,0.45018 0.20337,1.72296 -0.29291,2.62684 -1.33176,4.57759 -3.81616,7.16598 -4.11731,4.28966 -10.56701,8.3828 -16.35249,10.37772 -1.76787,0.60959 -4.00542,1.23991 -5.2751,1.48601 -1.31222,0.25435 -3.33555,0.35055 -4.67004,0.22204 z"
       id="path124580"
       transform="scale(0.26458333)" />
    <path
       style="fill:#1a1a1a;fill-opacity:1;fill-rule:evenodd;stroke:#000000;stroke-width:0.817551;stroke-dasharray:none;stroke-opacity:1;paint-order:markers fill stroke"
       d="m 301.30645,966.01903 c -0.97731,-0.11823 -2.08895,-0.37631 -2.47031,-0.57352 -0.38136,-0.19721 -1.56723,-0.54543 -2.63527,-0.77382 -1.06803,-0.22839 -3.40886,-0.7286 -5.20183,-1.11159 -1.82938,-0.39076 -4.03719,-1.03315 -5.03109,-1.46386 -0.97412,-0.42214 -2.07893,-0.83514 -2.45514,-0.91777 -0.37621,-0.0826 -0.78686,-0.3424 -0.91256,-0.57727 -0.1257,-0.23488 -0.71032,-0.70732 -1.29915,-1.04988 -0.58883,-0.34256 -1.51114,-0.95667 -2.04957,-1.36469 -0.53843,-0.40803 -1.13661,-0.74186 -1.3293,-0.74186 -0.75274,0 -2.9979,-1.19278 -3.14058,-1.66849 -0.0794,-0.26457 -0.42632,-1.09196 -0.77104,-1.83864 -0.84723,-1.83513 -0.9552,-2.34393 -1.06658,-5.02613 -0.0882,-2.12358 -0.0516,-2.38958 0.45166,-3.28086 0.3012,-0.53345 0.67165,-1.55669 0.82321,-2.27387 0.25853,-1.22333 0.69434,-1.59554 0.69434,-0.59302 0,1.16124 0.53788,2.42751 1.45579,3.42724 0.53552,0.58326 1.14571,1.32303 1.35599,1.64395 0.21027,0.32092 0.55457,0.64386 0.7651,0.71764 0.21053,0.0738 0.63733,0.36227 0.94844,0.6411 0.37747,0.33829 0.97971,0.55154 1.81013,0.64094 0.68446,0.0737 1.85538,0.19945 2.60206,0.27948 1.56546,0.16778 1.82205,0.31942 1.99384,1.17837 0.19702,0.9851 1.31333,2.07551 2.65999,2.59827 1.79381,0.69633 4.76515,0.6925 5.89091,-0.008 0.77219,-0.48023 0.83413,-0.48621 1.17149,-0.11313 0.1959,0.21664 0.54176,0.94863 0.76856,1.62663 0.36656,1.09578 0.55063,1.31451 1.65684,1.96877 1.63884,0.96929 3.0902,1.27889 5.5262,1.17885 l 2.00251,-0.0822 1.4302,-1.56247 c 1.22067,-1.33355 1.48133,-1.52003 1.77917,-1.27285 0.19192,0.15929 0.34896,0.61978 0.34896,1.02332 0,0.90466 0.64985,1.76721 1.63276,2.16717 0.40866,0.1663 1.22045,0.58105 1.80397,0.92167 0.58351,0.34062 1.60171,0.71976 2.26266,0.84253 0.66094,0.12276 1.48835,0.33271 1.83868,0.46655 0.87422,0.33399 2.34415,0.30497 3.67759,-0.0726 0.61371,-0.17378 1.57047,-0.38212 2.12614,-0.46299 0.59178,-0.0861 1.60808,-0.52456 2.45333,-1.05838 0.79366,-0.50125 1.49363,-0.86074 1.55548,-0.79889 0.1783,0.1783 -1.3668,2.16507 -1.69138,2.17486 -0.16089,0.005 -0.77181,0.44541 -1.3576,0.97901 -1.26905,1.15599 -2.47888,2.05117 -3.10146,2.29483 -0.2489,0.0974 -1.15151,0.25759 -2.0058,0.35596 -1.03122,0.11874 -1.78038,0.34676 -2.229,0.67843 -0.49758,0.36789 -0.85671,0.46339 -1.36226,0.36228 -0.3776,-0.0755 -1.10549,-0.0203 -1.61753,0.12262 -0.51204,0.14295 -2.40738,0.27849 -4.21185,0.30118 -1.80447,0.0227 -3.84087,0.10167 -4.52532,0.17551 -0.68446,0.0738 -2.04408,0.0375 -3.02138,-0.0807 z"
       id="path124582"
       transform="scale(0.26458333)" />
    <path
       style="fill:#1a1a1a;fill-opacity:1;fill-rule:evenodd;stroke:#000000;stroke-width:1.6351;stroke-dasharray:none;stroke-opacity:1;paint-order:markers fill stroke"
       d="m 376.05416,297.51328 c -16.16798,-1.38507 -28.40404,-4.48647 -32.90684,-8.3407 -1.39909,-1.19757 -1.97528,-2.14592 -2.55146,-4.19942 -0.40935,-1.45888 -0.74426,-3.41186 -0.74426,-4.33995 0,-1.84718 1.27512,-7.52547 1.82843,-8.14224 0.1904,-0.21223 2.75875,-0.065 5.70745,0.32722 2.94871,0.3922 8.0086,0.93237 11.2442,1.20037 3.2356,0.268 9.75224,0.98529 14.48142,1.59396 4.72918,0.60868 11.04201,1.42199 14.0285,1.80737 9.06105,1.16924 18.57031,1.33964 25.56766,0.45817 9.09311,-1.14548 24.15945,-3.37314 27.3816,-4.04856 l 2.8293,-0.59307 0.69705,4.5718 c 0.55904,3.6666 0.60262,5.39975 0.22014,8.75349 l -0.47692,4.1817 -5.70928,1.85829 c -6.51527,2.12063 -11.78326,3.34736 -18.60644,4.33278 -5.66116,0.8176 -35.51174,1.21948 -42.99055,0.57879 z"
       id="path124653"
       transform="scale(0.26458333)" />
  </g>
</svg>
